<?xml version="1.0" standalone="no"?>
<!DOCTYPE svg PUBLIC "-//W3C//DTD SVG 20010904//EN"
 "http://www.w3.org/TR/2001/REC-SVG-20010904/DTD/svg10.dtd">
<svg version="1.0" xmlns="http://www.w3.org/2000/svg"
 width="912.000000pt" height="618.000000pt" viewBox="0 0 912.000000 618.000000"
 preserveAspectRatio="xMidYMid meet">
<metadata>
Created by potrace 1.16, written by Peter Selinger 2001-2019
</metadata>
<g transform="translate(0.000000,618.000000) scale(0.100000,-0.100000)"
fill="#000000" stroke="none">
<path d="M2872 5226 c-1 -339 -2 -349 -21 -363 -12 -8 -21 -22 -21 -31 0 -14
-2 -14 -9 -3 -7 11 -13 6 -27 -20 -16 -30 -19 -31 -22 -13 -2 15 -17 26 -56
39 -48 16 -54 21 -51 43 4 34 -20 90 -28 68 -6 -16 -36 -12 -48 7 -4 5 -20 10
-37 10 -17 1 -30 6 -29 10 5 22 -142 25 -158 3 -5 -7 -22 -16 -37 -20 -16 -3
-28 -11 -28 -16 0 -6 -6 -10 -13 -10 -8 0 -22 -9 -31 -19 -22 -25 -42 -18 -49
17 -8 39 -63 100 -104 117 -20 8 -60 15 -90 15 -54 0 -56 -1 -115 -60 -32 -33
-61 -60 -62 -60 -2 0 -21 8 -42 17 -22 9 -42 16 -46 15 -5 -1 -8 17 -8 40 0
23 -2 39 -4 37 -4 -4 -12 -42 -15 -71 -1 -5 -21 -8 -45 -8 l-45 0 5 -112 c3
-62 6 -186 7 -275 1 -89 6 -165 10 -169 4 -5 46 11 93 34 46 23 86 42 88 42 2
0 6 -10 10 -22 3 -13 26 -47 52 -76 25 -29 43 -56 39 -60 -8 -8 -82 74 -91
101 -8 24 -31 18 -130 -30 -123 -60 -144 -97 -164 -291 -9 -84 -21 -112 -46
-112 -8 0 -14 -8 -15 -17 0 -10 -11 12 -23 49 -34 97 -79 147 -173 190 -29 13
-43 25 -43 38 0 27 7 26 76 -16 74 -44 136 -104 166 -160 13 -24 27 -44 32
-44 5 0 6 29 4 65 -3 36 -2 68 2 70 5 3 8 18 8 34 -1 33 45 137 74 168 l21 23
-244 1 c-134 0 -238 3 -231 6 6 2 9 10 5 16 -4 7 -8 18 -8 26 0 18 -52 34 -61
19 -4 -7 -2 -8 4 -4 7 4 12 2 12 -3 0 -12 -39 -15 -64 -5 -21 8 -21 24 0 24
13 0 37 11 83 37 2 2 -2 9 -9 18 -7 8 -29 15 -49 15 -35 1 -35 1 -16 16 19 15
18 16 -23 10 -24 -4 -70 -9 -103 -13 -33 -3 -62 -10 -65 -15 -3 -5 6 -20 21
-34 21 -19 34 -24 55 -19 16 3 31 13 34 21 9 23 26 6 26 -26 0 -15 6 -31 13
-33 6 -3 -7 -6 -30 -6 -34 -1 -41 2 -37 14 8 19 -1 19 -31 -1 -14 -9 -32 -13
-41 -10 -12 4 -15 2 -10 -9 3 -8 1 -15 -3 -15 -5 0 -7 -9 -4 -20 3 -11 1 -20
-5 -20 -5 0 -12 12 -15 28 -6 26 -57 63 -57 40 0 -5 -5 -6 -10 -3 -6 4 -9 1
-8 -6 2 -8 -7 -14 -19 -15 -13 -1 -23 4 -23 11 0 7 -6 15 -14 18 -10 4 -12 0
-9 -14 4 -15 2 -18 -13 -13 -11 4 -24 11 -31 16 -7 5 -14 5 -17 -1 -3 -5 -1
-12 4 -14 6 -3 5 -4 -2 -2 -7 1 -12 7 -11 13 2 6 -6 14 -17 17 -11 4 -20 10
-20 15 0 5 -6 7 -14 4 -8 -3 -12 -12 -10 -19 3 -7 1 -16 -5 -20 -7 -3 -11 3
-11 15 0 12 -4 19 -10 15 -5 -3 -7 -12 -3 -20 3 -8 0 -15 -6 -15 -6 0 -11 8
-11 18 -1 13 -4 11 -15 -8 -7 -14 -16 -24 -19 -22 -21 9 -46 -25 -28 -37 11
-7 4 -71 -7 -71 -4 0 -6 13 -3 29 2 16 -1 32 -7 36 -6 3 -11 3 -10 -2 4 -21
-2 -43 -12 -43 -5 0 -7 5 -4 10 11 17 -7 11 -20 -7 -11 -15 -13 -13 -11 15 2
35 27 67 54 67 9 0 17 6 17 14 0 8 8 17 18 20 10 4 19 11 19 16 1 19 25 46 38
43 8 -2 19 8 26 21 23 45 300 305 315 296 5 -4 6 0 3 8 -3 8 2 19 9 26 12 9
14 37 10 149 -3 75 -9 139 -14 140 -13 5 -11 32 2 32 5 0 7 5 4 10 -16 26 -27
7 -23 -40 5 -50 -5 -57 -23 -16 -8 19 -9 18 -6 -6 4 -25 -3 -33 -25 -29 -7 1
-4 -25 7 -60 8 -26 -4 -24 -38 5 -25 21 -26 25 -10 29 17 4 17 5 1 6 -10 0
-18 6 -18 11 0 6 -9 10 -21 10 -11 0 -17 -4 -14 -10 3 -5 0 -10 -7 -10 -9 0
-9 -3 -2 -8 21 -14 35 -50 23 -58 -8 -5 -6 -11 7 -21 17 -13 -29 -14 -358 -8
l-378 7 0 -2501 0 -2501 4560 0 4560 0 0 1845 0 1846 -22 9 -23 9 23 0 c15 1
22 7 22 20 0 11 -5 21 -11 23 -16 5 -17 68 -1 84 11 12 10 14 -8 14 -14 0 -19
4 -14 12 8 12 14 45 17 81 1 9 5 17 9 17 4 0 8 13 8 29 l0 29 -115 7 c-63 4
-116 10 -116 13 -10 55 -8 70 9 68 11 -2 17 -12 17 -29 1 -39 14 -45 21 -9 4
18 10 32 15 32 5 0 9 8 9 19 0 10 9 21 19 24 15 4 20 -2 25 -31 6 -42 2 -52
-25 -52 -41 0 -16 -18 34 -24 102 -12 107 -10 107 29 0 33 -2 35 -35 35 -28 0
-35 -4 -35 -20 0 -22 -16 -27 -22 -8 -3 7 0 34 5 60 10 47 10 48 48 48 22 0
39 5 39 11 0 5 -6 7 -12 3 -9 -6 -9 -3 1 9 16 20 8 47 -14 47 -9 0 -14 4 -10
10 3 5 12 7 20 3 12 -4 15 6 15 55 0 64 -7 74 -51 65 -13 -2 -35 0 -49 6 -22
9 -20 10 22 10 84 2 79 -14 78 237 -1 123 -4 224 -8 224 -4 0 -12 -10 -17 -22
-7 -16 -17 -22 -35 -20 -30 3 -30 3 -23 30 3 12 12 22 19 22 8 0 14 7 14 15 0
20 -66 21 -73 1 -3 -8 -2 -16 2 -18 5 -2 11 -14 15 -28 4 -14 4 -20 -1 -14 -4
7 -27 10 -50 9 -31 -3 -43 0 -43 10 0 18 -86 17 -101 -2 -12 -14 -39 -18 -39
-5 0 4 -37 6 -83 6 -82 -2 -137 -10 -137 -23 0 -3 -14 -6 -31 -7 -17 -1 -41
-12 -57 -26 -15 -14 -33 -23 -39 -21 -8 3 -13 -4 -13 -16 0 -23 -16 -29 -23
-8 -2 6 -7 9 -11 6 -11 -11 5 -38 20 -32 18 7 18 -12 -1 -31 -8 -8 -15 -27
-16 -43 0 -15 -3 -21 -6 -13 -23 70 -48 120 -59 120 -16 0 -45 41 -59 84 -14
42 -53 67 -111 70 -28 1 -56 6 -64 11 -9 5 -11 4 -6 -3 5 -8 -5 -12 -31 -12
-21 0 -48 -6 -59 -14 -33 -24 -100 -118 -115 -161 -7 -22 -17 -45 -22 -52 -5
-7 -6 -17 -2 -23 3 -5 1 -10 -4 -10 -6 0 -11 -7 -11 -16 0 -8 -4 -13 -8 -10
-5 3 -7 19 -4 36 2 17 0 30 -6 30 -6 0 -18 3 -28 7 -12 4 -15 2 -12 -8 3 -8
10 -13 15 -12 5 1 10 -5 10 -13 0 -8 -4 -14 -9 -14 -4 0 -8 5 -8 11 0 5 -4 8
-9 5 -5 -3 -11 0 -14 8 -7 18 -93 39 -115 28 -21 -12 -44 -4 -36 11 4 7 -3 2
-15 -10 -11 -12 -21 -27 -21 -34 0 -6 -7 -9 -15 -5 -8 3 -15 2 -15 -3 0 -4
-11 -14 -25 -21 -14 -8 -24 -19 -21 -26 9 -24 -7 -23 -39 2 -24 18 -34 21 -38
12 -3 -8 -6 -6 -6 5 -1 10 -5 16 -10 13 -5 -4 -11 -1 -13 5 -6 18 -38 -19 -38
-44 0 -18 -2 -19 -10 -7 -6 9 -10 10 -10 3 0 -18 -40 -11 -41 7 0 10 -2 11 -6
3 -3 -10 -8 -9 -20 2 -8 8 -18 13 -23 10 -5 -3 -11 8 -15 25 -4 16 -11 32 -16
35 -5 4 -9 19 -9 35 0 37 -9 60 -24 60 -6 0 -23 13 -38 30 -14 16 -28 27 -31
24 -3 -3 -17 2 -31 12 -20 12 -38 15 -71 11 -26 -4 -47 -2 -50 4 -4 5 -24 8
-46 6 -21 -2 -39 -1 -39 4 0 4 -15 6 -32 4 -18 -1 -42 3 -53 8 -11 6 -48 10
-82 9 -44 -1 -63 2 -63 11 0 8 -4 7 -10 -3 -8 -12 -10 -11 -10 8 0 13 -6 22
-15 22 -8 0 -15 -5 -15 -11 0 -5 -5 -7 -11 -3 -6 3 -15 0 -20 -7 -7 -11 -9
-10 -9 4 0 9 -4 17 -10 17 -5 0 -10 -6 -10 -14 0 -8 -10 -16 -23 -20 -13 -3
-29 -18 -36 -33 -10 -22 -14 -24 -22 -12 -6 10 -9 10 -10 2 -4 -34 -6 -38 -17
-36 -7 2 -12 0 -12 -5 0 -4 -11 -7 -25 -7 -14 0 -25 2 -25 5 0 3 -15 7 -32 8
-18 2 -35 7 -36 13 -3 6 -9 6 -18 -2 -8 -6 -11 -15 -8 -20 3 -5 0 -9 -5 -9 -6
0 -11 -10 -11 -22 -1 -21 -2 -21 -13 -6 -7 9 -21 16 -31 15 -11 -1 -21 5 -23
13 -4 13 -3 13 6 0 8 -12 10 -11 8 8 -2 26 -6 27 -22 5 -11 -15 -14 -14 -28
13 -37 70 -92 98 -179 88 -54 -6 -64 -11 -107 -54 -35 -35 -48 -56 -49 -78 0
-17 -10 -40 -21 -51 -24 -24 -33 -27 -25 -7 3 8 1 17 -5 21 -6 3 -11 -1 -11
-9 0 -18 -16 -21 -25 -5 -4 6 -13 8 -21 5 -8 -3 -14 0 -14 7 0 8 -4 7 -9 -3
-6 -8 -8 -17 -5 -21 2 -4 0 -10 -5 -14 -6 -3 -8 -12 -4 -20 3 -8 0 -15 -6 -15
-6 0 -13 11 -17 23 -4 19 -11 23 -30 19 -13 -2 -24 -9 -24 -14 0 -5 4 -6 10
-3 5 3 18 1 27 -4 19 -11 15 -13 -27 -15 -15 -1 -26 -8 -28 -18 -2 -13 3 -16
25 -15 33 2 40 -26 8 -31 -16 -3 -17 -1 -5 7 19 13 9 14 -24 1 -20 -7 -26 -6
-26 4 0 9 -7 12 -20 9 -18 -5 -19 -7 -5 -17 13 -9 5 -11 -42 -10 -39 2 -71 -4
-98 -16 -44 -21 -172 -31 -179 -15 -4 10 -10 -51 -7 -69 1 -5 3 -22 4 -37 1
-19 5 -24 13 -18 6 5 93 9 193 9 124 -1 187 2 196 10 8 7 19 9 25 5 5 -3 10
-1 10 4 0 6 18 11 41 11 59 0 45 -24 -16 -28 -47 -3 -133 -48 -165 -87 -8 -10
-31 -15 -61 -15 -50 0 -56 -4 -39 -30 8 -13 10 -12 10 3 0 12 8 17 28 17 l27
0 -30 -25 c-36 -29 -55 -32 -55 -7 0 14 -2 15 -10 2 -6 -9 -5 -17 2 -21 6 -4
1 -13 -13 -22 -12 -9 -25 -15 -27 -12 -3 2 -4 38 -4 79 0 42 -4 78 -9 82 -6 3
-10 -2 -9 -12 1 -11 2 -38 1 -62 -1 -32 -4 -41 -13 -36 -10 6 -9 3 0 -8 7 -9
12 -29 10 -45 -3 -25 -7 -28 -37 -26 -24 1 -30 -2 -20 -8 8 -5 26 -9 41 -9 21
0 26 -4 21 -17 -4 -9 -2 -14 3 -10 6 3 11 -4 11 -15 2 -18 0 -19 -15 -6 -9 8
-61 41 -114 72 -111 65 -130 84 -35 34 l63 -34 1 56 c1 30 -3 60 -9 67 -6 7
-8 24 -6 38 3 14 1 25 -3 25 -11 0 -12 -12 -9 -67 1 -34 -2 -43 -15 -43 -10 0
-13 5 -9 13 5 8 2 8 -9 -2 -16 -12 -16 -10 -10 20 3 19 10 36 15 37 4 2 5 8 2
13 -4 6 -11 6 -19 -1 -9 -7 -15 -8 -20 -1 -4 7 -15 5 -33 -7 -25 -16 -26 -16
-17 3 4 11 13 39 19 63 6 23 17 42 24 42 7 0 10 -5 6 -12 -4 -7 -3 -8 4 -4 12
7 5 36 -9 36 -5 0 -9 9 -9 21 0 11 5 17 10 14 6 -3 10 -3 11 2 0 4 2 19 5 32
2 14 -3 32 -12 43 -10 10 -14 18 -9 18 4 0 2 7 -5 15 -7 9 -15 35 -17 58 -3
23 -7 47 -11 53 -13 22 -69 81 -88 93 -17 11 -17 12 -1 7 11 -4 16 -2 11 5 -3
6 -15 9 -25 6 -11 -3 -19 -1 -19 4 0 12 -67 11 -75 -1 -3 -5 -12 -10 -20 -10
-8 0 -31 -11 -51 -25 -20 -14 -41 -22 -48 -18 -6 3 -8 3 -5 -1 4 -4 -4 -19
-17 -33 -25 -27 -44 -80 -44 -123 0 -20 -2 -22 -10 -10 -7 11 -10 6 -10 -20 0
-19 -2 -53 -5 -75 -3 -26 -2 -32 3 -16 7 21 9 22 20 8 8 -9 12 -31 10 -49 -2
-27 0 -32 15 -30 21 4 23 -14 2 -22 -8 -3 -15 -12 -15 -20 0 -10 6 -13 15 -10
14 6 16 2 19 -28 1 -6 -7 -12 -16 -14 -10 -1 -25 -10 -34 -18 -15 -16 -17 -15
-30 1 -12 17 -13 16 -14 -10 0 -20 -4 -26 -12 -21 -10 6 -10 5 -1 -8 7 -8 10
-18 6 -21 -3 -4 -12 1 -20 11 -12 16 -13 15 -6 -3 8 -23 32 -50 35 -38 0 4 2
13 3 18 2 6 3 18 4 28 2 27 19 20 23 -10 2 -21 -5 -35 -32 -59 -45 -39 -128
-94 -143 -94 -13 -1 -56 -30 -43 -30 4 0 1 -7 -8 -15 -19 -19 -32 -19 -16 0
10 12 9 15 -6 16 -11 1 -22 1 -26 0 -5 0 -8 4 -8 10 0 7 11 9 29 6 21 -4 34
-1 46 13 18 20 17 20 -41 20 l-60 0 6 -57 c3 -32 9 -64 14 -71 4 -7 3 -19 -4
-27 -6 -8 -9 -19 -5 -25 3 -5 1 -10 -4 -10 -6 0 -11 21 -11 48 0 156 -39 289
-97 330 -25 17 -98 50 -145 66 -10 3 -18 12 -18 20 0 13 5 13 38 0 20 -9 52
-25 69 -36 20 -12 38 -16 45 -11 7 4 70 8 140 8 122 0 128 -1 127 -20 0 -11
-3 -14 -6 -7 -3 9 -40 12 -134 12 l-129 0 39 -36 c29 -25 46 -53 61 -99 21
-63 21 -63 63 -67 71 -7 86 0 99 45 10 32 10 41 0 45 -7 2 -12 8 -12 13 0 4 6
6 14 3 9 -4 13 4 12 25 -1 17 -5 31 -11 31 -5 0 -4 4 4 9 10 6 15 27 15 59 1
28 -2 48 -6 45 -5 -2 -8 1 -8 6 0 6 4 11 9 11 5 0 7 16 4 36 -3 22 -1 34 5 30
8 -5 22 44 22 82 0 9 -23 12 -84 12 -58 0 -86 4 -89 13 -4 10 -6 10 -6 0 -1
-9 -25 -13 -84 -13 -53 0 -88 -5 -96 -12 -10 -9 -12 -9 -7 -1 5 9 -16 11 -78
9 -72 -2 -83 -1 -78 12 4 11 2 13 -9 7 -7 -5 -26 -8 -41 -7 -21 2 -28 -2 -28
-15 0 -15 2 -16 10 -3 5 8 12 11 16 7 4 -4 3 -11 -2 -16 -11 -11 -64 -2 -64
10 0 5 -11 9 -24 9 -29 0 -44 19 -25 31 21 13 -3 31 -37 27 -38 -4 -41 -24 -7
-42 l28 -15 -27 -1 c-37 0 -58 -10 -58 -26 0 -12 4 -13 22 -3 16 9 23 9 26 0
5 -15 37 -14 62 1 15 10 23 9 39 -6 16 -15 18 -22 10 -33 -13 -14 -39 -18 -39
-4 0 4 -23 4 -52 0 -34 -6 -56 -5 -65 3 -7 6 -13 7 -13 3 0 -4 -6 -2 -14 5 -8
6 -12 19 -9 28 3 10 1 13 -4 7 -16 -20 -33 -15 -33 10 0 19 -5 25 -17 23 -12
-2 -19 5 -21 21 -4 23 -3 24 14 6 18 -18 19 -17 25 16 4 18 5 37 3 41 -3 4 3
41 13 82 17 72 19 74 51 80 18 3 43 1 56 -4 12 -4 29 -4 38 1 33 18 110 -33
93 -61 -3 -5 1 -26 10 -46 8 -20 15 -54 15 -75 0 -32 4 -39 20 -39 27 0 40 68
16 85 -11 8 -16 27 -16 61 0 51 -27 110 -55 120 -8 4 -12 10 -9 15 3 5 -14 17
-38 28 -33 14 -51 16 -82 9 -61 -14 -100 -36 -126 -70 -12 -17 -17 -27 -10
-23 8 5 7 -1 -3 -16 -9 -13 -17 -42 -17 -65 0 -23 -3 -55 -6 -72 l-6 -31 -131
-3 c-126 -3 -130 -4 -113 -21 10 -10 16 -20 13 -23 -2 -3 -12 2 -21 12 -20 20
-41 6 -50 -34 -4 -15 -13 -40 -21 -57 -7 -16 -17 -39 -21 -50 -6 -18 -8 -16
-13 10 l-7 30 -7 -25 c-10 -38 -9 -48 11 -53 16 -4 16 -5 -1 -6 -10 0 -17 -7
-16 -13 3 -19 -12 -68 -21 -68 -4 0 -11 -17 -15 -37 -4 -20 -15 -54 -26 -75
l-19 -38 80 0 c74 0 81 2 89 23 5 12 6 26 3 31 -3 5 0 6 6 2 6 -3 13 2 16 12
8 23 98 82 180 117 42 18 66 34 66 44 1 13 2 13 11 -2 13 -21 -4 -47 -30 -47
-21 0 -160 -66 -185 -88 -25 -23 -52 -79 -67 -136 -10 -41 -9 -49 7 -68 13
-15 7 -12 -20 8 -21 16 -68 45 -104 64 -36 19 -68 41 -70 49 -3 8 0 11 7 7 7
-5 11 2 11 18 0 14 -5 28 -12 32 -6 4 -8 3 -5 -4 10 -15 -3 -43 -16 -35 -5 3
-7 1 -4 -4 10 -15 -22 -103 -50 -141 -34 -45 -39 -35 -9 19 51 95 57 157 15
180 -27 14 -37 4 -20 -23 10 -16 10 -26 0 -52 -25 -61 -79 -134 -110 -150 -28
-14 -34 -14 -63 1 -40 20 -47 32 -35 56 9 16 13 17 27 4 19 -16 51 -15 62 3 4
7 18 10 31 8 16 -2 25 2 27 14 2 11 -2 17 -10 15 -7 -2 -10 -2 -5 1 4 2 12 13
18 24 8 15 7 22 -7 32 -12 9 -15 19 -9 32 4 10 7 22 7 26 -1 5 3 7 9 5 12 -2
13 7 25 127 5 51 3 70 -6 76 -21 13 -42 -1 -36 -22 9 -38 -1 -43 -85 -41 -74
1 -81 0 -89 -20 -8 -21 -9 -21 -10 -2 -5 58 -8 81 -9 88 -2 12 -31 8 -31 -5 0
-6 -3 -8 -7 -5 -3 4 -12 2 -19 -4 -10 -8 -15 -5 -20 16 -4 15 -2 31 4 37 8 8
9 4 6 -13 -5 -19 -4 -21 5 -9 6 8 11 24 11 36 0 41 21 84 41 84 10 0 19 -4 19
-10 0 -5 4 -10 10 -10 5 0 7 7 4 15 -4 10 0 15 14 15 12 0 23 -4 26 -9 7 -10
-53 -41 -79 -41 -11 0 -15 -7 -13 -22 6 -44 108 -51 108 -8 0 28 15 25 28 -5
13 -28 37 -32 89 -13 25 9 33 17 31 33 -2 16 -9 20 -40 18 -29 -2 -36 0 -32
12 5 11 0 12 -25 5 -22 -6 -31 -5 -31 3 3 73 119 98 120 25 0 -28 57 -141 65
-129 4 7 1 19 -7 28 -9 12 -9 15 0 9 7 -4 12 -1 12 9 0 9 -4 13 -10 10 -5 -3
-10 -1 -10 4 0 6 4 11 10 11 5 0 18 20 29 45 18 41 23 45 55 45 42 0 66 29 41
50 -8 7 -15 25 -15 41 0 15 -4 30 -9 33 -11 7 -21 -17 -21 -48 0 -21 -5 -23
-45 -21 -41 1 -48 4 -68 38 -33 54 -81 77 -153 71 l-59 -4 3 92 c1 51 -2 206
-6 343 l-9 250 -1 -349z m-797 -290 c73 -2 88 -10 82 -45 -3 -14 1 -41 9 -60
8 -18 14 -46 14 -61 0 -16 5 -30 12 -32 8 -3 7 -11 -6 -29 l-17 -24 7 29 c6
25 5 28 -10 23 -10 -4 -26 -7 -36 -7 -23 0 -29 -26 -16 -62 13 -35 3 -44 -26
-24 -12 9 -34 16 -48 17 -15 0 -19 3 -10 6 22 9 64 43 53 43 -6 0 -15 10 -22
23 -6 12 -9 14 -7 5 5 -15 -1 -18 -34 -18 -42 0 -50 -9 -25 -30 18 -15 11 -30
-15 -30 -11 0 -24 -9 -30 -20 -6 -11 -15 -20 -19 -20 -16 0 -19 39 -5 66 16
30 15 32 -18 48 -19 10 -23 19 -22 51 5 132 29 172 94 160 19 -4 62 -8 95 -9z
m3923 -152 c7 -12 26 -16 75 -18 66 -1 67 -1 72 -31 3 -16 7 -64 9 -105 5 -91
4 -88 16 -70 6 9 10 10 10 3 0 -7 -10 -17 -21 -24 -12 -6 -19 -7 -16 -2 9 14
-9 37 -22 29 -6 -4 -11 -14 -11 -22 0 -19 -14 -18 -31 2 -11 13 -14 13 -20 1
-11 -19 -59 -10 -59 11 0 13 -2 13 -18 -1 -21 -19 -42 -22 -42 -7 0 5 -16 17
-36 25 -36 15 -37 16 -29 58 4 23 8 56 10 72 1 17 3 35 4 42 1 12 67 51 88 52
7 1 16 -6 21 -15z m1036 -214 c16 -6 27 -6 31 0 10 16 78 12 103 -6 17 -11 22
-25 22 -58 0 -23 5 -47 12 -54 7 -7 9 -12 6 -12 -4 0 -3 -13 2 -30 7 -24 5
-32 -9 -42 -19 -14 -47 -58 -43 -70 3 -11 -20 -10 -38 2 -13 9 -13 11 0 20 13
8 13 12 -4 27 -10 10 -16 12 -12 6 5 -9 -3 -13 -27 -13 l-34 0 8 43 c4 23 8
49 9 57 0 9 6 5 14 -10 8 -14 12 -28 10 -32 -8 -12 36 -9 73 4 41 15 44 44 6
59 -16 6 -53 8 -85 4 -36 -3 -58 -2 -58 4 0 6 -7 8 -15 4 -9 -3 -13 -8 -10
-11 2 -3 -5 -10 -18 -16 -12 -6 -23 -23 -25 -36 -3 -23 1 -25 40 -28 51 -3 53
-4 37 -34 -21 -39 -50 -52 -44 -18 4 23 -5 26 -23 8 -23 -23 -32 13 -28 112 2
52 4 96 5 98 1 2 60 30 68 32 1 0 13 -4 27 -10z m-1139 -27 c-6 -29 -6 -168 0
-213 2 -14 4 -35 4 -47 1 -16 9 -24 29 -29 15 -3 37 -11 50 -17 17 -8 25 -8
34 1 7 7 22 12 34 12 14 0 31 12 43 29 23 31 27 46 11 36 -14 -9 -12 22 5 80
14 46 15 47 10 11 -2 -23 1 -47 10 -60 11 -18 12 -29 0 -71 -21 -82 -45 -120
-88 -138 -37 -15 -41 -15 -76 2 -92 48 -148 161 -106 217 10 13 14 46 15 110
0 50 3 94 7 97 15 15 23 5 18 -20z m-3549 -115 c36 -21 37 -21 50 -3 8 10 14
14 14 8 0 -7 -5 -15 -11 -19 -8 -4 2 -14 25 -26 22 -11 49 -38 64 -63 l27 -44
111 -1 c72 0 114 4 122 12 9 9 12 7 12 -9 0 -16 -15 -27 -71 -49 -41 -17 -90
-46 -115 -70 -46 -42 -55 -44 -28 -6 15 22 15 22 -20 20 -28 -2 -36 -7 -37
-23 0 -11 -7 6 -15 38 -21 87 -38 108 -135 172 -49 31 -89 62 -89 69 0 6 -3
22 -7 35 l-6 25 36 -22 c21 -12 53 -32 73 -44z m5575 -88 c6 0 7 5 4 10 -3 6
0 10 7 10 9 0 18 -22 26 -62 6 -35 14 -75 18 -90 3 -16 2 -28 -3 -28 -5 0 -16
33 -24 73 l-14 74 -113 -61 c-181 -98 -198 -116 -232 -252 -10 -42 -21 -78
-24 -82 -13 -12 -18 9 -8 36 6 18 6 35 0 45 -6 13 -5 17 5 17 17 0 30 27 21
41 -3 6 0 17 7 25 10 13 10 17 -2 25 -11 7 -11 9 4 9 9 0 22 10 28 23 6 12 26
33 46 47 20 14 54 43 75 65 27 29 41 36 46 27 6 -9 20 -6 60 13 73 35 69 54
-10 57 l-63 2 63 3 c41 3 62 8 61 16 -1 7 0 19 2 27 1 8 4 -4 6 -27 2 -24 9
-43 14 -43z m498 -23 l9 -32 1 28 c1 35 32 34 38 -1 2 -17 -1 -21 -9 -16 -10
6 -10 5 -1 -8 7 -8 11 -17 8 -20 -3 -2 16 -20 43 -38 58 -42 101 -87 108 -117
4 -15 11 -20 22 -16 13 4 14 3 4 -5 -15 -10 -13 -43 3 -54 6 -5 5 -8 -3 -8 -7
0 -17 10 -22 23 -7 18 -9 14 -9 -23 -1 -66 7 -89 29 -83 29 8 34 -32 25 -196
-4 -80 -8 -161 -9 -178 l-1 -33 -57 0 c-80 0 -88 4 -81 48 3 20 12 41 20 45 7
4 13 17 13 27 0 10 8 23 17 29 10 5 15 13 11 16 -4 4 0 14 8 22 15 15 16 73 2
73 -5 0 -4 9 2 19 15 29 12 37 -6 15 -15 -19 -16 -19 -9 1 16 50 27 135 23
187 -6 80 -41 128 -135 186 -42 26 -89 59 -105 74 -21 20 -28 23 -28 11 0 -29
-63 -153 -77 -153 -11 0 -9 7 6 29 33 46 61 113 61 148 0 29 3 32 38 35 48 4
50 3 61 -35z m-3354 -57 c-9 -18 -14 -34 -12 -36 2 -3 10 9 17 26 15 36 21 35
123 -22 128 -73 157 -113 158 -219 1 -134 -2 -145 -45 -179 -19 -15 -19 -15 0
15 15 24 15 27 2 17 -15 -12 -15 -9 -1 30 9 24 17 57 18 73 l3 30 -14 -32 c-8
-18 -17 -33 -20 -33 -3 0 -2 5 1 10 10 16 -11 11 -26 -6 -10 -12 -13 -71 -15
-238 -1 -123 2 -229 6 -236 7 -11 14 -11 35 -2 34 16 35 15 35 -6 0 -20 -26
-30 -125 -52 -89 -19 -169 -92 -144 -131 17 -26 10 -46 -18 -52 -51 -11 -58
-22 -57 -83 0 -41 5 -60 17 -69 9 -7 15 -21 12 -33 -2 -12 1 -25 7 -28 7 -4 8
-2 4 4 -10 17 10 15 27 -3 17 -17 28 -8 48 40 l13 30 4 -28 c2 -16 -2 -34 -8
-42 -8 -10 -7 -15 7 -19 15 -5 26 -36 51 -144 18 -75 35 -146 38 -158 5 -19
-1 -22 -52 -32 -31 -7 -73 -12 -91 -12 -21 0 -32 -4 -28 -10 4 -6 -3 -29 -14
-51 -12 -23 -16 -37 -9 -33 10 6 11 4 1 -7 -29 -30 -15 -39 61 -39 81 0 78 -4
61 62 -6 24 -3 29 20 38 33 12 55 -4 86 -60 152 -280 126 -252 239 -255 146
-5 161 2 220 93 27 42 53 82 58 88 5 6 27 40 48 77 29 50 44 67 60 67 26 0 27
0 49 123 18 95 19 97 47 97 15 0 28 5 28 11 0 7 -10 9 -27 4 -22 -5 -25 -4
-15 8 7 8 9 17 5 21 -4 4 -1 4 8 1 9 -3 25 6 41 22 20 22 25 35 21 61 -4 23
-11 32 -24 32 -11 0 -19 5 -19 11 0 5 5 7 11 3 6 -3 15 0 20 7 7 12 9 11 10
-1 1 -8 5 0 9 19 7 28 5 37 -11 50 -16 14 -17 22 -9 56 10 47 43 78 162 152
112 70 119 72 108 36 -5 -15 -12 -39 -14 -53 -4 -19 -24 -34 -81 -64 -97 -51
-117 -73 -121 -133 -19 -257 -22 -337 -15 -356 12 -31 1 -177 -13 -177 -6 1
-40 7 -76 15 -36 8 -68 14 -72 15 -4 0 -5 -20 -2 -44 5 -36 2 -50 -17 -78 -13
-18 -26 -35 -29 -38 -17 -14 -68 -98 -63 -104 4 -3 1 -6 -5 -6 -7 0 -12 -6
-12 -14 0 -8 -16 -24 -35 -36 -19 -12 -35 -26 -35 -31 0 -6 -10 -3 -22 5 -38
27 -70 20 -115 -25 -39 -38 -42 -39 -52 -21 -5 10 -30 35 -55 55 -38 32 -48
36 -69 28 -23 -9 -30 -5 -65 33 -40 44 -40 44 -47 19 -4 -18 0 -32 13 -47 22
-25 52 -73 52 -83 0 -4 -16 8 -35 27 l-35 34 0 -40 c0 -34 4 -41 31 -53 45
-20 69 -65 69 -132 0 -41 -4 -58 -15 -63 -8 -3 -15 -17 -15 -32 0 -26 -1 -26
-19 -10 -11 10 -27 19 -36 20 -9 1 -20 8 -24 15 -4 7 -13 -61 -20 -151 -43
-601 -53 -758 -54 -880 -1 -76 -5 -138 -9 -138 -3 0 -9 -38 -13 -84 -7 -84
-18 -120 -32 -101 -5 6 -24 11 -43 12 -61 2 -88 8 -83 16 2 4 -7 5 -21 1 -14
-3 -26 -2 -26 3 0 4 -16 8 -35 7 -19 -1 -35 2 -35 7 0 6 -9 5 -21 -1 -14 -8
-29 -8 -49 -1 -21 7 -30 6 -34 -2 -5 -9 -7 -9 -12 0 -3 7 -14 9 -34 3 -16 -4
-31 -6 -33 -3 -8 8 -110 7 -129 -1 -9 -4 -26 -2 -38 4 -12 6 -24 9 -27 6 -4
-3 -12 -1 -20 5 -7 6 -22 9 -33 6 -11 -3 -22 -2 -25 3 -2 4 -33 7 -67 6 -35
-1 -68 1 -74 6 -5 4 -22 1 -36 -6 -19 -10 -29 -11 -37 -3 -8 8 -11 8 -11 -1 0
-18 -21 -15 -36 6 -13 16 -13 16 -14 -1 0 -10 -4 -15 -10 -12 -5 3 -10 1 -10
-6 0 -8 -4 -8 -16 2 -13 10 -17 10 -24 -1 -8 -12 -10 -12 -15 1 -4 11 -16 15
-34 13 -23 -3 -30 1 -35 18 -3 12 -4 24 -2 26 4 3 144 -5 421 -23 33 -2 187
-7 342 -11 238 -6 283 -5 287 7 3 8 6 50 9 95 l4 81 -286 6 c-157 4 -385 14
-506 22 -121 8 -225 15 -231 15 -7 0 -10 -25 -9 -70 1 -54 -2 -75 -15 -90 -9
-11 -20 -17 -23 -14 -3 3 -10 -3 -16 -14 -10 -19 -60 -35 -113 -36 -15 0 -24
-4 -22 -8 3 -4 0 -8 -5 -8 -6 0 -11 7 -11 15 0 9 -6 12 -16 8 -13 -5 -13 -7
-2 -14 9 -6 5 -9 -12 -8 -14 0 -44 -2 -67 -5 -28 -2 -43 0 -43 8 0 7 -3 7 -8
1 -9 -13 -62 -17 -62 -5 0 6 -14 10 -31 10 -40 0 -98 56 -100 97 -6 106 14
180 66 249 31 40 113 81 181 90 l50 6 37 352 c50 470 52 500 40 493 -6 -4 -9
-19 -7 -34 3 -20 0 -17 -10 12 l-14 40 -1 -32 c-1 -17 -5 -35 -11 -38 -5 -3
-10 -17 -10 -31 0 -13 -4 -24 -10 -24 -5 0 -10 -13 -10 -28 0 -21 -7 -32 -24
-40 -27 -12 -48 1 -39 24 8 22 -26 29 -41 9 -12 -17 -14 -16 -35 6 -18 20 -22
32 -18 69 7 64 20 106 55 178 17 34 26 62 21 62 -17 0 -1 17 72 80 39 34 84
63 99 67 34 6 34 7 50 177 5 60 12 112 15 114 3 3 21 5 40 5 29 0 35 3 29 16
-3 9 -7 21 -8 26 -1 6 -4 15 -8 20 -3 6 -3 25 -1 43 6 37 32 48 90 39 52 -9
71 -31 78 -91 4 -29 10 -58 13 -63 4 -6 56 -16 116 -22 156 -16 156 -16 156
14 0 16 6 25 15 25 8 0 15 -5 15 -11 0 -5 -4 -8 -8 -5 -5 3 -9 -1 -9 -9 0 -8
4 -12 9 -9 4 3 8 -2 8 -11 0 -14 10 -16 70 -13 39 2 71 0 73 -3 1 -3 50 -9
109 -12 l107 -6 30 54 c32 56 55 75 92 75 21 0 21 2 14 93 -4 50 -9 135 -10
187 -5 136 -16 260 -26 288 -5 13 -9 40 -9 61 0 34 -4 40 -64 79 -35 23 -68
42 -72 42 -24 0 -44 36 -44 81 0 26 -3 50 -7 52 -5 3 -8 -11 -8 -31 -1 -72
-62 -212 -92 -212 -8 0 -3 13 11 34 38 56 69 152 64 194 l-5 37 123 2 124 3 0
-25 c0 -14 -4 -25 -10 -25 -5 0 -10 9 -10 20 0 11 -4 20 -9 20 -5 0 -7 -9 -4
-20 5 -17 0 -20 -30 -20 -19 0 -37 3 -40 8 -2 4 -2 1 0 -6 1 -8 -3 -12 -9 -9
-7 2 -12 10 -11 16 2 6 -2 11 -7 11 -6 0 -10 -6 -10 -14 0 -23 49 -31 178 -28
l122 3 1 137 c1 75 2 157 3 182 l1 45 -40 3 c-65 6 -246 -9 -239 -19 3 -6 14
-7 25 -4 14 5 19 2 19 -14 0 -11 -4 -22 -9 -25 -12 -8 -39 3 -44 17 -2 7 -3 4
-2 -5 3 -14 -4 -18 -27 -18 -22 0 -29 4 -26 17 2 9 9 18 16 19 7 1 8 0 2 -3
-15 -7 -12 -23 4 -23 7 0 16 11 18 25 5 23 2 24 -50 27 -48 3 -56 6 -58 26 -2
13 1 22 9 22 8 0 9 3 1 8 -16 10 -26 59 -14 65 6 3 6 5 -1 3 -6 -1 -28 15 -48
35 -35 35 -90 59 -138 59 -27 0 -27 2 -9 39 18 34 74 85 119 107 17 8 46 32
64 52 l31 36 7 -50 c13 -85 20 -96 61 -92 28 2 40 -3 54 -20 27 -32 82 -30
105 4 12 19 22 24 38 20 25 -6 47 10 47 33 -1 14 -2 14 -11 -1 -5 -10 -14 -18
-19 -18 -5 0 6 32 25 72 19 40 36 79 36 88 1 8 4 5 6 -7 2 -12 -3 -36 -12 -53z
m715 31 c0 -13 -14 -24 -47 -36 -102 -38 -140 -63 -172 -113 -18 -28 -31 -62
-31 -80 0 -17 -5 -34 -12 -38 -7 -5 -9 -2 -5 9 4 11 2 14 -9 10 -21 -8 -9 41
22 89 27 42 29 48 13 48 -5 0 -7 -4 -4 -10 3 -6 -4 -10 -17 -9 -25 0 -71 17
-50 18 6 1 12 8 12 16 0 10 12 14 48 13 39 -1 64 8 142 50 52 29 98 52 103 52
4 0 7 -8 7 -19z m-4991 -60 c1 -25 10 -41 37 -66 19 -18 31 -36 26 -39 -6 -3
-26 9 -46 28 -26 24 -36 42 -36 64 0 17 -4 34 -10 37 -5 3 -10 2 -10 -3 0 -4
-29 -19 -64 -31 -106 -37 -150 -71 -181 -138 l-28 -58 24 -130 c16 -89 24
-178 27 -282 l3 -153 -35 0 c-26 0 -36 5 -41 20 -3 11 -15 25 -26 31 -11 5
-17 14 -14 19 3 4 9 72 15 150 8 129 11 144 31 158 17 12 20 21 15 50 -3 19
-11 39 -18 43 -10 7 -10 11 0 21 6 6 12 34 12 61 0 58 19 103 63 145 35 33
128 83 195 104 24 7 42 19 43 28 1 28 18 -24 18 -59z m6017 -81 c10 0 12 -9 8
-32 l-6 -33 19 22 c13 16 25 20 46 16 15 -3 27 -11 27 -18 0 -14 -29 -26 -105
-44 -62 -15 -120 -54 -153 -103 -13 -21 -31 -38 -39 -38 -16 0 -12 8 24 56 12
17 20 34 15 38 -4 4 -2 6 3 5 16 -6 96 44 84 52 -7 4 -9 21 -4 49 7 40 8 42
37 36 17 -3 37 -6 44 -6z m-1344 -163 c-7 -8 -6 -18 4 -32 12 -17 26 -20 86
-20 48 0 73 4 75 12 4 10 9 10 26 1 12 -7 25 -12 28 -11 8 2 10 -19 13 -95 2
-60 1 -63 -19 -56 -19 6 -91 12 -197 16 -48 1 -78 -13 -78 -38 0 -8 6 -14 14
-14 8 0 16 -4 18 -9 3 -9 29 -14 60 -12 9 0 20 10 23 21 8 25 32 26 40 1 3
-11 14 -21 23 -23 27 -6 93 13 99 28 9 23 23 15 23 -12 0 -30 -24 -53 -57 -54
-22 0 -33 -16 -25 -37 2 -7 11 -13 19 -13 10 0 13 -6 9 -16 -3 -9 -6 -22 -6
-30 0 -19 -17 -18 -46 5 -35 28 -88 25 -126 -7 -18 -15 -29 -22 -25 -15 4 6 2
13 -4 15 -16 5 9 55 31 61 9 2 28 -4 40 -13 21 -16 26 -16 46 -3 30 19 36 39
18 54 -12 10 -13 9 -8 -5 5 -13 -1 -16 -36 -16 -30 0 -39 3 -35 13 4 6 0 4 -8
-5 -15 -19 -47 -25 -47 -9 0 5 -14 14 -30 21 l-30 12 1 92 c1 50 6 99 10 108
6 12 4 18 -6 20 -14 3 -14 6 0 26 9 12 25 22 36 22 11 0 22 7 25 15 4 8 11 15
16 15 7 0 7 -4 0 -13z m-1627 -7 c0 -3 104 -11 135 -11 14 0 32 -3 40 -6 15
-6 26 -9 47 -11 6 -1 9 -11 6 -23 -5 -18 -7 -19 -15 -5 -5 9 -13 16 -17 16
-19 0 -18 -29 4 -76 28 -58 32 -112 9 -121 -13 -5 -13 -7 -2 -14 8 -6 -1 -9
-27 -10 l-40 -2 40 -6 c34 -5 40 -10 43 -33 3 -25 0 -28 -30 -29 -18 -1 -37 0
-43 1 -5 2 -19 3 -30 3 -11 1 -23 6 -27 11 -5 7 -8 7 -8 1 0 -15 -120 -6 -120
8 0 8 -4 7 -9 -2 -5 -7 -14 -10 -20 -7 -18 11 -13 26 12 36 17 7 18 9 5 9 -24
1 -23 22 2 28 11 3 20 11 20 18 0 7 7 16 16 19 8 3 12 2 9 -4 -3 -6 -1 -10 4
-10 6 0 11 21 11 49 0 27 3 56 6 65 5 12 0 16 -20 16 -16 0 -26 6 -26 15 0 8
7 15 15 15 8 0 15 5 15 11 0 6 -9 8 -20 4 -11 -3 -20 -3 -20 2 0 4 -3 17 -6
29 -5 17 -1 20 18 18 13 -1 23 -3 23 -4z m-229 -19 c5 -6 31 -11 59 -13 53 -3
69 -19 77 -78 3 -23 0 -24 -44 -24 -26 1 -54 4 -62 7 -13 5 -15 0 -12 -25 2
-24 10 -34 36 -44 38 -16 43 -17 36 -5 -3 5 8 11 24 15 19 3 30 12 31 23 1 12
4 10 9 -7 6 -21 2 -30 -23 -52 -19 -18 -28 -32 -23 -43 3 -9 3 -28 0 -41 l-6
-25 -16 22 c-13 19 -22 21 -78 17 -48 -3 -67 -9 -79 -23 -16 -22 -18 -16 -15
43 1 17 -3 32 -9 32 -18 0 -43 48 -36 70 7 23 25 27 25 5 0 -8 9 -15 19 -15
11 0 22 -4 25 -9 10 -16 47 1 57 26 13 36 14 36 -50 31 l-59 -4 5 40 c3 23 15
51 26 64 21 22 65 30 83 13z m1026 -16 c3 3 17 -13 32 -36 20 -30 26 -48 21
-68 -3 -15 -2 -46 3 -69 6 -24 6 -39 1 -36 -5 3 -9 -2 -9 -11 0 -9 -6 -23 -14
-31 -13 -12 -18 -11 -42 10 l-28 24 32 7 c47 10 41 41 -10 49 -7 1 -19 5 -25
9 -7 5 -13 4 -13 0 0 -5 -15 -8 -32 -7 -18 1 -33 3 -33 4 0 1 -13 3 -30 5 -21
3 -26 2 -15 -5 12 -8 9 -10 -12 -10 -59 0 -79 -31 -33 -52 13 -6 22 -14 20
-19 -9 -14 14 -20 35 -9 23 12 27 -1 6 -23 -8 -7 -20 -33 -27 -56 -11 -37 -15
-41 -24 -27 -7 9 -17 16 -23 16 -6 0 -14 5 -18 12 -5 7 -3 8 7 3 11 -7 11 -5
-1 10 -14 17 -13 18 8 13 26 -7 29 4 6 26 -17 17 -39 12 -28 -6 4 -6 1 -9 -7
-6 -7 2 -17 20 -20 39 -6 29 -6 32 5 17 7 -10 15 -18 18 -18 2 0 0 41 -4 90
-6 73 -5 97 7 120 16 31 43 54 33 28 -5 -11 0 -14 19 -12 23 2 24 1 8 -16 -15
-17 -15 -19 5 -25 12 -4 28 -1 37 7 9 7 24 12 35 10 10 -2 18 1 18 7 0 5 12
11 28 13 20 2 28 9 30 28 4 22 5 23 16 7 7 -9 15 -14 18 -12z m-3085 -14 c15
-19 16 -31 4 -31 -5 0 -11 9 -14 20 -5 20 -37 29 -37 10 0 -5 4 -10 10 -10 5
0 7 -7 4 -15 -8 -20 -23 -19 -48 3 -13 10 -16 11 -9 2 9 -12 8 -20 -3 -34 -19
-27 -18 -35 5 -33 11 0 18 4 16 7 -1 3 3 11 11 17 8 8 15 9 19 3 4 -6 11 -8
16 -5 11 7 11 3 3 -19 -3 -9 -10 -13 -15 -10 -5 3 -9 1 -9 -5 0 -5 -25 -9 -55
-8 -30 1 -55 7 -55 12 0 6 -4 4 -9 -4 -10 -15 8 -43 22 -34 4 2 6 -1 5 -9 -3
-14 57 -16 147 -3 l51 7 13 -52 c7 -28 11 -53 8 -56 -3 -3 1 -17 8 -31 14 -27
12 -43 -6 -43 -6 0 -8 4 -4 9 8 15 -29 31 -70 31 -25 0 -34 4 -29 12 5 8 -2 9
-23 5 -17 -3 -34 -2 -39 3 -15 14 -96 0 -90 -16 3 -8 1 -14 -3 -14 -5 0 -16
-2 -24 -5 -11 -5 -14 7 -16 59 -1 35 3 67 8 70 6 4 8 13 4 21 -3 8 -1 15 5 15
6 0 12 -6 15 -12 2 -7 8 -10 12 -5 11 10 -26 36 -42 30 -17 -7 -17 12 0 29 7
7 20 26 30 41 10 15 22 25 27 22 4 -3 10 1 13 7 3 10 7 10 20 0 13 -11 15 -10
13 5 -4 24 10 32 58 31 25 0 45 -7 53 -17z m434 -2 c5 -8 9 -9 9 -3 0 9 107
12 177 5 16 -1 11 -40 -7 -51 -10 -6 -7 -10 11 -13 13 -3 -3 -4 -36 -2 -33 2
-49 1 -35 -2 40 -8 50 -22 50 -69 0 -55 -15 -94 -37 -95 -10 -1 -4 -5 12 -9
26 -7 23 -8 -20 -8 -36 0 -45 2 -30 8 18 8 17 9 -8 9 -16 1 -26 -3 -22 -9 8
-12 -33 -12 -60 1 -17 8 -16 8 7 4 15 -3 30 -1 33 5 3 5 26 10 50 10 24 0 46
3 48 8 3 4 8 32 12 64 8 61 11 57 -57 72 -20 5 -28 2 -31 -11 -2 -10 -3 -3 -1
14 1 18 -2 36 -8 39 -6 4 -8 2 -4 -4 4 -7 -24 -12 -92 -14 l-99 -3 9 36 10 36
55 -2 c35 -1 58 -7 64 -16z m594 1 c31 17 112 5 124 -18 13 -26 32 -172 27
-215 -4 -44 -16 -62 -17 -26 0 13 -3 18 -6 11 -2 -6 -8 -10 -13 -7 -4 3 -11
-6 -14 -20 -7 -28 -24 -33 -32 -10 -5 11 -22 15 -69 15 -43 0 -66 -5 -75 -15
-18 -21 -40 -19 -40 5 0 13 -7 20 -20 20 -23 0 -44 43 -36 74 3 11 0 27 -7 35
-10 11 -9 13 3 9 10 -4 14 -17 13 -44 -2 -28 0 -35 7 -24 5 8 10 51 10 96 0
48 5 87 13 96 14 20 64 28 91 15 12 -6 27 -5 41 3z m5070 -91 c6 -6 11 -36 12
-67 3 -87 14 -144 30 -161 13 -12 16 -12 24 0 7 11 9 9 9 -7 0 -27 -10 -36
-26 -23 -10 8 -15 8 -18 -2 -2 -8 -7 -21 -9 -29 -3 -8 -6 1 -6 20 l-1 34 -22
-22 c-17 -16 -19 -25 -11 -33 19 -19 -3 -51 -25 -40 -9 5 -25 12 -35 15 -10 3
-17 13 -15 23 2 12 -4 17 -27 17 -23 0 -31 -5 -35 -24 -4 -15 -16 -26 -33 -31
-26 -7 -28 -6 -25 19 3 25 -23 62 -42 62 -8 0 -12 23 -10 65 2 72 2 92 -5 118
-6 20 -3 33 11 48 16 18 27 21 79 17 38 -3 71 0 90 8 31 14 72 10 90 -7z
m-2586 -43 c0 -20 -1 -20 -9 -1 -7 16 -9 17 -9 3 -1 -9 -9 -19 -18 -21 -10 -3
7 -6 37 -8 52 -2 51 -3 -25 -9 -66 -5 -71 -7 -28 -8 59 -2 83 -9 83 -25 0 -7
-4 -7 -12 1 -16 16 -108 16 -109 0 0 -7 -4 -4 -9 7 -12 28 -12 33 3 38 6 2 4
3 -5 2 -9 -2 -19 2 -21 9 -2 6 -2 1 0 -11 3 -19 -1 -23 -22 -23 -23 0 -25 -4
-25 -45 l0 -44 33 4 32 5 -33 -10 c-31 -10 -33 -14 -30 -48 2 -23 9 -38 18
-40 12 -2 15 6 12 38 -4 38 8 54 23 30 12 -20 22 -9 23 26 2 63 12 50 12 -15
l0 -63 54 4 c30 1 52 0 49 -4 -2 -5 -23 -9 -46 -9 l-42 -2 40 -7 c26 -5 -5 -8
-91 -8 -72 0 -136 3 -141 7 -6 3 -13 15 -16 26 -4 18 -5 18 -6 -2 -1 -18 -7
-23 -26 -23 -24 0 -25 3 -25 56 0 44 -3 55 -14 51 -22 -9 -26 18 -6 36 17 14
18 13 24 -15 3 -17 6 -50 6 -74 0 -32 4 -44 15 -44 11 0 15 13 15 53 1 56 13
49 24 -14 4 -24 13 -39 25 -42 16 -4 18 0 14 32 -2 20 0 47 6 61 8 21 10 17
10 -32 1 -45 4 -58 16 -58 13 0 15 14 13 83 l-3 82 -70 6 c-70 5 -69 5 27 7
84 2 97 4 91 18 -5 13 -7 13 -14 2 -6 -9 -9 -6 -9 12 0 24 3 25 59 27 48 1 61
-2 64 -15 3 -12 5 -10 6 5 1 30 31 19 30 -11z m1575 -5 c21 -22 26 -35 21 -48
-14 -33 -14 -48 1 -71 20 -30 11 -69 -19 -78 -29 -9 -37 -22 -30 -56 5 -27 5
-28 -26 -17 -29 10 -43 29 -21 29 7 0 7 6 0 19 -17 33 -12 44 15 37 14 -4 25
-3 25 2 0 4 14 13 31 19 27 10 29 14 19 32 -6 12 -17 21 -25 21 -8 0 -15 7
-15 15 0 9 -9 15 -22 15 -19 0 -20 -2 -8 -10 18 -11 12 -12 -55 -10 -27 1 -56
5 -64 10 -20 11 -91 -27 -91 -49 0 -20 53 -45 86 -38 13 2 24 0 24 -4 0 -5 -4
-9 -8 -9 -8 0 -32 -43 -32 -55 0 -2 7 -2 15 1 8 4 15 1 15 -4 0 -6 -10 -14
-22 -18 -13 -4 -26 -12 -30 -18 -5 -6 -8 -2 -8 11 0 12 5 25 10 28 6 3 10 10
10 15 0 16 -30 39 -44 34 -19 -7 -24 17 -22 110 2 85 10 98 47 73 19 -14 25
-13 64 8 40 20 45 21 59 7 14 -14 16 -14 16 -2 0 13 2 13 10 0 8 -12 10 -11
10 8 0 32 30 28 64 -7z m1444 8 c2 -5 8 -6 14 -3 6 4 14 0 19 -7 6 -10 9 -11
9 -1 0 6 7 12 15 12 8 0 15 -9 15 -20 0 -15 -7 -20 -25 -20 -14 0 -25 5 -25
11 0 5 -4 8 -9 4 -6 -3 -15 3 -21 12 -11 17 -11 17 -6 1 7 -22 -7 -23 -28 -3
-10 10 -17 12 -21 4 -13 -20 10 -29 82 -33 69 -5 71 -4 67 17 -2 12 -1 16 2 8
5 -10 8 -10 14 -1 5 8 9 7 13 -5 4 -9 3 -13 -3 -10 -6 3 -10 -1 -10 -9 0 -19
40 -22 57 -5 8 8 11 3 11 -18 1 -15 3 -41 5 -58 2 -16 2 -20 0 -8 -2 13 -13
29 -25 37 -19 13 -19 14 -1 20 10 3 -4 3 -31 1 -27 -3 -51 -6 -52 -8 -2 -2 -6
-100 -5 -129 1 -15 10 -18 50 -18 39 0 51 4 54 18 4 15 5 15 6 -1 1 -12 -8
-21 -21 -25 -22 -6 -21 -7 7 -14 21 -5 15 -6 -19 -3 -27 3 -107 8 -178 12 -71
3 -125 9 -119 12 6 4 15 43 20 86 l10 80 -4 -77 c-4 -63 -2 -78 10 -78 9 0 16
14 20 38 4 20 7 44 9 52 1 8 6 -11 10 -42 4 -32 10 -58 14 -58 11 0 3 143 -7
153 -6 6 -27 14 -48 18 -31 7 -26 8 26 5 49 -2 60 0 43 7 -26 12 -28 24 -5 49
16 18 54 16 61 -3z m-2148 -18 c0 -5 15 -8 33 -7 18 2 40 -3 50 -12 15 -14 17
-14 12 -1 -5 13 4 15 50 15 30 0 55 -4 55 -9 0 -4 4 -6 8 -3 10 6 9 -24 -1
-41 -4 -6 -2 -13 5 -16 7 -2 2 -2 -10 0 -13 2 -21 0 -18 -5 3 -5 -14 -9 -38
-8 -32 1 -42 4 -35 13 10 12 7 15 -25 27 -15 5 -17 4 -7 -8 21 -25 -61 -8 -83
17 -14 16 -18 18 -13 5 4 -12 0 -21 -13 -28 -11 -6 -20 -21 -19 -33 l0 -22 9
23 c7 16 18 22 40 22 28 0 30 -2 30 -40 0 -25 5 -40 13 -40 8 0 9 -2 1 -8 -7
-4 -14 -16 -17 -27 -2 -11 -5 8 -6 43 -1 59 -2 62 -26 62 -19 0 -25 -5 -25
-22 0 -13 -4 -29 -9 -37 -7 -10 -11 -5 -16 18 -5 22 -12 31 -27 31 -17 0 -20
-5 -16 -39 2 -22 0 -37 -4 -35 -5 3 -8 23 -8 44 0 32 4 39 23 43 15 3 12 5
-13 6 -19 2 -29 5 -22 8 6 2 12 16 12 29 0 13 5 24 10 24 6 0 10 -5 10 -12 0
-6 7 -3 15 8 9 12 14 14 15 6 0 -10 5 -10 22 2 25 18 38 20 38 7z m-2890 -11
c9 -5 19 -5 27 2 10 8 16 3 24 -21 11 -32 29 -42 29 -16 0 8 4 15 9 15 5 0 7
-9 4 -20 -3 -11 -10 -20 -17 -20 -6 0 -4 -5 4 -10 13 -9 13 -10 0 -11 -8 -1
-28 0 -43 1 l-28 2 2 -64 c3 -84 5 -88 50 -88 33 0 39 3 40 23 1 17 2 18 6 4
3 -10 0 -24 -7 -32 -9 -11 -6 -14 12 -18 13 -3 -1 -5 -29 -4 -29 0 -56 -2 -60
-6 -3 -4 17 -7 45 -7 49 0 51 -1 49 -27 -2 -26 -4 -27 -57 -27 -50 1 -55 4
-59 25 l-4 24 -6 -25 c-6 -20 -14 -25 -49 -28 -28 -2 -42 1 -42 8 0 7 -6 10
-14 7 -9 -4 -13 0 -12 11 2 10 16 19 36 23 27 6 33 4 37 -12 3 -10 9 -19 13
-19 5 0 6 9 3 20 -4 16 0 20 23 22 16 1 4 4 -26 7 -47 5 -55 9 -61 31 l-7 25
-2 -25 c-1 -14 -4 -18 -6 -10 -2 8 0 35 4 60 l9 45 8 -52 c11 -77 25 -64 25
23 l0 76 -30 -4 c-16 -2 -31 0 -33 6 -3 7 9 10 34 8 38 -4 39 -5 39 -43 0 -24
5 -39 13 -39 9 0 9 -2 -1 -9 -21 -13 -11 -75 12 -79 20 -4 44 14 32 25 -4 4
-11 1 -16 -7 -8 -13 -10 -12 -10 3 0 9 7 17 15 17 21 0 19 20 -2 21 -16 0 -15
1 2 8 19 8 19 8 0 19 -18 10 -18 11 -2 12 14 0 17 7 15 40 l-2 40 -57 0 c-69
0 -89 7 -89 29 0 14 2 14 11 1 8 -12 9 -10 4 7 -8 28 7 36 49 24 27 -7 38 -6
47 5 13 16 19 17 39 4z m-2000 -47 c19 -5 52 -8 72 -8 21 0 38 -1 38 -2 0 -1
-4 -13 -10 -27 -6 -17 -6 -26 0 -26 6 0 10 -4 10 -8 0 -4 -17 -6 -37 -4 -37 4
-38 4 -15 -13 18 -13 22 -26 22 -68 0 -31 -6 -62 -16 -75 -15 -21 -14 -22 13
-23 l28 -1 -25 -8 c-24 -8 -24 -8 -2 -9 15 -1 22 -7 22 -22 0 -11 -4 -17 -10
-14 -5 3 -10 -1 -10 -9 0 -18 -27 -25 -58 -14 -28 10 -131 12 -158 3 -14 -4
-27 -1 -38 11 -11 11 -20 13 -24 7 -4 -5 -26 -13 -49 -17 -35 -5 -43 -3 -43
10 0 18 18 53 37 72 7 7 13 34 14 60 1 36 3 41 8 22 8 -30 17 -19 26 34 8 38
7 39 -18 34 -14 -3 -28 0 -30 6 -9 25 -1 80 12 84 10 3 11 0 5 -9 -7 -12 -5
-12 9 -1 9 8 20 11 26 8 5 -3 11 1 15 9 4 12 20 14 78 10 40 -2 89 -8 108 -12z
m5955 -122 c0 -1 39 -4 88 -6 99 -4 107 -7 106 -38 0 -21 -1 -21 -9 -2 -8 18
-9 18 -9 2 -1 -11 -6 -15 -13 -11 -6 4 -8 3 -4 -4 3 -6 -2 -13 -11 -16 -10 -2
0 -3 22 0 22 2 34 1 27 -2 -10 -5 -9 -9 5 -21 17 -13 16 -13 -4 -4 -33 16 -80
13 -87 -5 -3 -9 -6 -40 -6 -70 0 -53 0 -54 29 -54 17 0 33 -4 36 -10 3 -5 11
-10 16 -10 6 0 8 4 4 9 -3 5 0 13 6 17 8 4 9 3 5 -4 -11 -18 -1 -15 64 18 67
34 80 36 80 15 0 -14 39 -139 55 -179 6 -13 4 -17 -5 -14 -13 4 -59 142 -61
182 -1 16 -2 17 -6 4 -2 -9 -16 -21 -31 -27 -15 -6 -34 -15 -42 -20 -8 -5 -50
-22 -94 -37 l-79 -27 -29 -66 c-17 -36 -35 -69 -40 -72 -7 -4 -7 -22 0 -53 8
-36 7 -49 -3 -52 -7 -3 -15 -32 -19 -66 -5 -51 -3 -63 12 -75 10 -8 11 -11 2
-7 -13 7 -13 5 -1 -9 12 -15 9 -21 -11 -18 -15 2 -8 -17 8 -23 9 -4 25 0 34 9
16 14 18 10 28 -52 7 -38 15 -93 18 -123 6 -46 12 -60 40 -83 18 -15 52 -54
74 -86 23 -32 58 -72 79 -89 l38 -31 114 6 c104 5 118 4 156 -16 39 -19 48
-20 119 -10 59 8 79 8 84 -2 9 -13 40 38 40 64 0 8 7 28 16 46 16 31 17 32 77
29 60 -3 62 -4 58 -28 -1 -13 -12 -35 -22 -49 -10 -13 -19 -29 -19 -36 0 -7
-9 -24 -20 -38 -11 -14 -20 -32 -20 -41 0 -9 -6 -16 -12 -16 -7 0 -13 -12 -13
-26 0 -21 2 -23 10 -9 31 52 31 52 62 23 16 -16 32 -28 35 -28 6 0 58 -53 152
-153 21 -23 67 -77 102 -120 66 -82 78 -115 48 -144 -13 -13 -13 -18 -2 -24
10 -7 7 -11 -9 -15 -25 -7 -29 -28 -14 -68 7 -16 7 -26 0 -28 -10 -3 -21 -68
-12 -68 4 0 15 7 25 17 17 15 18 15 20 -8 1 -27 1 -34 -6 -106 -3 -29 -8 -58
-11 -63 -4 -6 -8 -21 -10 -33 -2 -12 -6 -40 -9 -62 -4 -22 -11 -41 -16 -43 -6
-2 -10 -10 -10 -18 0 -19 -12 -18 -112 12 -78 24 -88 30 -88 51 0 12 -3 23 -8
23 -10 0 -5 91 8 124 5 15 10 42 10 60 0 17 5 37 11 43 10 10 17 32 18 61 1 7
6 10 11 7 6 -3 10 -1 10 4 0 6 6 11 14 11 20 0 11 48 -14 70 -11 10 -23 31
-24 47 -2 15 -4 31 -5 36 0 4 -7 7 -15 7 -8 0 -21 6 -28 13 -7 8 -26 17 -42
21 -25 6 -28 5 -22 -11 5 -16 5 -17 -6 -1 -7 9 -19 25 -26 35 -18 26 -53 27
-59 2 -6 -20 -28 -26 -38 -9 -4 6 -11 8 -16 5 -5 -4 -9 -1 -9 4 0 6 -6 11 -14
11 -15 0 -29 37 -16 45 4 3 13 29 20 57 7 29 25 77 41 107 l28 54 -20 28 c-11
16 -34 36 -50 45 -27 13 -32 13 -59 -3 -25 -14 -34 -15 -50 -5 -12 7 -61 12
-127 13 -94 1 -109 3 -121 20 -19 27 -37 24 -82 -17 -21 -20 -44 -33 -50 -29
-17 11 -11 -5 20 -52 17 -24 30 -47 30 -50 0 -3 10 -22 22 -42 13 -20 23 -38
24 -41 14 -90 14 -142 0 -193 -19 -73 -22 -77 -53 -77 -21 0 -23 3 -14 14 8
10 9 16 1 21 -5 3 -10 15 -10 26 0 10 -4 19 -10 19 -5 0 -10 -9 -10 -20 0 -11
-5 -20 -11 -20 -5 0 -7 5 -4 10 3 6 -1 10 -9 10 -9 0 -15 -3 -14 -7 2 -5 0 -9
-4 -10 -18 -6 -28 -2 -28 12 0 24 -36 58 -51 49 -9 -5 -10 -2 -6 9 3 9 0 22
-7 30 -7 7 -17 24 -21 37 -4 14 -13 32 -20 40 -18 23 -43 93 -38 110 2 8 -6 4
-18 -10 l-22 -25 8 30 c4 17 9 39 11 50 2 11 6 30 10 43 5 16 2 22 -10 22 -26
0 -18 19 17 41 25 16 41 18 77 13 25 -3 53 -10 63 -16 10 -5 28 -11 40 -13
l22 -4 -22 19 c-13 10 -23 22 -23 27 0 4 -16 23 -36 41 -20 18 -34 36 -31 39
7 7 -16 32 -25 27 -6 -4 -28 51 -28 69 0 4 -6 20 -15 37 -15 29 -15 29 -91 25
l-75 -5 5 93 c5 97 20 231 31 284 9 40 -11 158 -33 200 -11 20 -45 50 -87 77
-100 64 -115 78 -116 106 0 14 -9 -12 -19 -57 -17 -76 -46 -150 -55 -141 -3 2
7 37 21 78 17 49 25 88 22 120 l-3 47 85 -44 c47 -24 114 -69 149 -100 60 -54
64 -56 77 -38 8 10 14 26 14 34 0 9 9 31 20 49 11 18 20 42 20 53 0 16 6 20
28 19 48 -3 54 -2 41 13 -8 8 -34 12 -78 10 -36 -2 -60 0 -53 3 6 3 9 11 6 17
-5 8 -2 8 7 0 7 -7 28 -13 46 -13 29 0 33 3 33 25 0 15 -6 25 -14 25 -8 0 -18
5 -22 11 -4 7 0 9 14 5 18 -6 20 -2 24 48 4 66 6 65 -137 67 -66 1 -91 4 -75
9 14 4 19 8 13 9 -12 1 -18 32 -8 42 4 5 110 4 110 0z m-4231 -107 c14 -13 26
-30 26 -38 0 -8 -26 -46 -57 -84 -71 -87 -122 -111 -170 -82 -31 19 -63 61
-63 83 0 8 -7 28 -16 45 -13 27 -19 84 -15 142 1 20 36 -31 67 -100 14 -30 34
-63 46 -74 21 -20 21 -20 44 9 13 16 21 31 19 33 -2 3 1 14 7 26 7 11 12 26
13 31 0 6 14 31 30 56 l30 47 6 -36 c4 -21 18 -45 33 -58z m5366 40 c19 -2 52
-5 73 -6 21 -1 40 -5 43 -10 3 -4 1 -8 -4 -8 -6 0 -8 -9 -5 -20 5 -19 2 -20
-38 -14 -24 4 -54 6 -66 5 -17 0 -23 5 -24 22 -1 21 -1 21 -9 -3 -8 -25 -8
-25 -10 5 -2 21 -4 24 -7 10 -3 -19 -12 -21 -82 -22 -77 -2 -78 -2 -78 22 0
21 5 25 41 28 39 4 90 1 166 -9z m-6775 -27 c3 -13 12 -38 20 -53 17 -33 20
-74 5 -74 -5 0 -10 5 -10 11 0 7 -9 0 -20 -14 -15 -18 -37 -28 -85 -38 -64
-13 -67 -14 -104 -70 -34 -51 -39 -65 -39 -121 -1 -55 -32 -182 -101 -414 -10
-35 1 -54 31 -54 19 0 22 -13 19 -90 -2 -62 -18 -96 -50 -109 -15 -7 -37 -31
-51 -56 -14 -25 -28 -45 -31 -45 -4 0 -9 -11 -11 -25 -3 -14 -1 -25 3 -25 5 0
9 -5 9 -11 0 -5 -3 -8 -7 -6 -5 3 -16 2 -26 -2 -15 -6 -16 -9 -4 -25 13 -17
15 -17 51 8 86 58 175 16 241 -115 27 -52 24 -60 -27 -63 -22 -2 -32 3 -35 14
-4 16 -8 16 -59 1 -30 -10 -60 -23 -66 -29 -14 -14 -42 -16 -33 -3 3 5 0 13
-6 16 -17 11 -22 -1 -9 -24 13 -25 5 -42 -15 -35 -8 3 -17 22 -20 42 -3 21
-11 56 -16 78 -9 35 -14 41 -31 36 -33 -8 -58 -58 -47 -95 11 -41 11 -57 0
-57 -8 0 -21 26 -26 50 -8 42 -18 50 -60 50 -50 0 -60 -9 -40 -36 8 -10 15
-33 15 -51 0 -31 -1 -32 -35 -26 -34 5 -41 -1 -36 -29 0 -5 -4 -8 -10 -8 -8 0
-9 19 -5 62 7 58 11 67 62 120 30 31 54 61 54 67 0 5 13 31 29 58 17 28 36 80
45 126 9 43 27 106 41 141 14 34 25 65 25 68 0 3 14 20 30 38 17 18 30 37 30
44 0 6 9 29 20 51 11 22 20 47 20 56 0 28 -30 90 -40 84 -6 -3 -10 1 -10 9 0
8 -4 17 -9 20 -5 3 -9 -15 -9 -41 -2 -58 -13 -71 -43 -49 -50 34 -55 1 -6 -39
17 -15 26 -24 20 -20 -7 3 -13 0 -13 -7 0 -7 -11 1 -25 17 l-24 30 -1 -48 c0
-69 -14 -89 -55 -86 -75 7 -42 -21 50 -41 33 -8 27 -9 -35 -6 -97 4 -189 30
-233 67 l-35 29 23 77 c12 43 26 109 30 147 5 55 12 73 32 92 14 13 31 24 38
24 7 0 18 7 25 15 7 8 23 15 35 15 12 0 29 9 36 19 19 27 119 37 120 13 0 -14
2 -13 9 3 5 11 9 14 9 7 1 -7 5 -11 10 -7 5 3 12 1 16 -5 9 -14 21 -12 39 6
15 14 16 13 16 -9 0 -17 7 -26 21 -30 20 -5 20 -5 3 14 -17 19 -16 19 15 13
22 -5 37 -2 50 10 10 9 25 16 32 14 10 -2 15 12 19 48 3 27 13 62 22 76 25 38
151 123 203 138 44 12 44 13 23 30 -16 13 -19 23 -14 44 8 32 15 30 21 -7z
m2995 14 c-5 -11 -10 -28 -10 -38 -1 -31 -43 -70 -110 -102 -92 -43 -123 -78
-127 -141 -1 -28 -14 -123 -28 -211 -14 -89 -25 -176 -25 -195 0 -18 -7 -52
-16 -74 -14 -36 -20 -40 -50 -40 -26 0 -32 3 -28 15 4 11 -3 19 -26 26 -26 9
-31 16 -26 33 3 11 20 86 37 166 17 80 33 148 36 153 8 13 23 -3 23 -24 0 -30
17 -14 40 38 21 47 16 62 -17 63 -24 0 -13 18 22 34 37 18 46 36 18 36 -35 0
-43 14 -27 44 13 27 13 31 -8 53 -12 13 -49 36 -80 51 -47 21 -58 31 -58 50
l0 23 63 -34 c34 -18 76 -42 93 -52 l31 -18 37 29 c28 21 192 111 244 133 1 0
-2 -8 -8 -18z m1314 -118 c-36 -93 -61 -131 -95 -149 -22 -11 -34 -12 -50 -3
-11 6 -18 13 -15 16 3 3 -4 21 -15 39 -26 42 -18 56 22 41 25 -10 35 -9 60 5
16 9 29 13 29 7 0 -5 10 -1 21 10 14 13 20 27 16 40 -3 11 0 22 6 24 5 1 12
10 13 18 2 7 5 23 8 34 2 11 5 25 6 30 1 6 6 -2 11 -17 8 -21 5 -41 -17 -95z
m197 95 c1 -22 1 -22 7 -2 7 19 14 21 122 21 139 1 150 -1 150 -33 l0 -24
-115 2 c-90 2 -118 6 -125 18 -8 11 -12 12 -18 3 -4 -7 -25 -15 -46 -17 -31
-4 -37 -3 -32 10 3 9 6 22 6 30 0 8 10 14 25 14 19 0 25 -5 26 -22z m1864 -10
c-4 -18 -16 -40 -28 -50 -21 -16 -21 -16 14 -31 91 -38 151 -71 188 -104 40
-33 74 -83 69 -100 -1 -4 3 -18 10 -31 13 -22 17 -23 149 -21 150 1 199 13
271 61 56 38 72 27 72 -48 0 -29 4 -64 9 -77 5 -14 17 -100 26 -193 13 -139
14 -196 5 -333 -6 -91 -12 -167 -14 -168 -1 -2 -28 -8 -60 -14 -63 -11 -123
-9 -118 5 2 5 -4 14 -13 19 -12 6 -14 12 -6 16 8 5 -5 23 -36 53 -27 24 -56
57 -66 71 -17 26 -17 27 0 27 15 1 13 5 -8 23 -15 12 -36 40 -47 62 -25 48
-68 102 -76 95 -5 -6 8 -120 19 -167 3 -13 1 -23 -4 -23 -6 0 -27 -11 -47 -25
-20 -14 -42 -25 -49 -25 -9 0 -14 48 -20 173 -4 94 -8 179 -8 187 3 140 8 271
11 255 2 -11 9 -25 14 -32 5 -7 7 -16 4 -22 -3 -5 1 -12 10 -15 11 -4 15 -2
12 6 -3 7 -13 37 -23 67 -10 32 -20 49 -25 41 -8 -13 -20 9 -20 39 0 20 -67
91 -86 91 -7 0 -28 9 -46 20 -18 11 -40 20 -49 20 -9 0 -28 9 -43 21 l-26 20
0 -33 c0 -36 -24 -145 -34 -155 -16 -16 -16 11 0 59 10 29 19 83 20 120 2 44
10 81 24 108 25 48 34 51 25 8z m-4272 -21 c15 -23 39 -56 53 -74 15 -19 21
-34 15 -38 -6 -3 -32 26 -58 67 -26 39 -48 67 -51 60 -2 -6 -41 -23 -86 -37
-91 -28 -168 -72 -187 -107 -16 -29 -38 -131 -40 -183 -1 -22 -3 -33 -6 -24
-5 22 -50 31 -57 12 -11 -28 -6 -98 9 -127 8 -15 15 -36 15 -46 0 -10 9 -22
20 -25 11 -3 20 -11 20 -17 0 -6 6 -6 15 2 13 10 15 9 15 -8 0 -11 -8 -23 -17
-25 -14 -4 -14 -5 3 -6 19 -1 22 -9 28 -78 4 -43 9 -99 12 -125 l6 -46 -65 -7
c-36 -4 -83 -4 -106 0 -48 8 -50 19 -25 125 9 36 20 119 24 185 9 127 15 173
32 217 23 63 -32 181 -92 198 -63 17 -73 30 -64 81 5 29 9 37 12 24 l5 -20 8
20 c7 19 8 19 8 -2 1 -12 -5 -23 -11 -26 -7 -2 3 -12 22 -22 79 -41 122 -80
153 -140 l30 -60 13 57 c17 75 35 100 96 139 43 28 201 99 218 98 3 0 17 -19
33 -42z m-1535 -32 c43 -20 121 -45 177 -56 l100 -20 100 51 c64 33 101 47
104 39 4 -14 -38 -48 -60 -49 -26 0 -80 -26 -125 -58 -34 -25 -44 -40 -55 -82
-9 -35 -20 -55 -34 -60 -17 -7 -17 -9 -2 -9 32 -2 18 -19 -21 -26 -66 -11 -69
-16 -47 -77 10 -29 26 -59 34 -66 10 -8 11 -11 2 -6 -9 5 -12 3 -7 -5 4 -6 12
-9 17 -6 5 4 17 2 26 -4 14 -7 21 -5 30 12 l12 22 1 -23 c0 -12 -7 -25 -15
-28 -13 -5 -13 -9 -3 -22 11 -13 10 -15 -4 -9 -10 3 -20 1 -24 -6 -4 -7 -4 -9
1 -5 4 4 13 1 20 -6 17 -16 25 -286 9 -286 -24 0 -33 -22 -18 -46 13 -18 13
-30 4 -66 -6 -24 -18 -53 -26 -65 -8 -13 -12 -23 -8 -23 4 0 1 -7 -6 -15 -7
-8 -9 -15 -6 -15 4 0 2 -6 -4 -12 -34 -41 -82 -108 -84 -120 -5 -24 -58 -127
-72 -139 -8 -6 -14 -19 -14 -28 0 -10 -9 -17 -20 -18 -12 -1 -20 4 -20 14 0
14 -3 13 -25 -1 -24 -16 -25 -16 -25 4 0 31 -18 24 -70 -27 -26 -27 -65 -62
-87 -80 l-38 -32 25 -10 c14 -5 19 -10 13 -10 -29 -2 -12 -35 50 -102 9 -10
13 -19 8 -19 -5 0 -11 -10 -15 -22 -7 -29 19 -51 44 -38 23 12 30 4 30 -37 0
-21 -6 -36 -15 -39 -8 -4 -15 -14 -15 -23 0 -9 -11 -26 -25 -39 -13 -13 -25
-33 -27 -45 -2 -14 -10 -22 -23 -22 -13 0 -21 -8 -23 -23 -3 -19 -8 -23 -25
-18 -12 3 -41 8 -64 12 -24 4 -43 12 -43 18 0 22 28 112 59 191 27 69 31 92
31 175 0 117 8 170 26 170 7 0 24 12 38 27 l25 27 9 -24 9 -23 16 24 c9 13 17
33 17 44 -1 18 -1 19 -11 3 -5 -10 -19 -18 -29 -18 -10 0 -31 -11 -46 -25 -15
-14 -33 -25 -41 -25 -21 0 9 51 66 110 49 50 84 70 125 70 16 0 32 13 50 40
l26 40 -33 0 c-82 0 -214 -107 -263 -215 -28 -61 -36 -69 -28 -26 6 28 5 29
-27 26 -37 -3 -47 -18 -29 -40 8 -9 8 -15 2 -15 -6 0 -23 26 -39 57 -33 68
-150 191 -210 222 -23 11 -59 21 -79 21 l-37 0 39 29 c22 16 48 39 60 50 22
22 88 29 99 12 9 -15 117 0 151 20 37 23 55 24 48 5 -4 -11 0 -13 15 -9 14 3
21 1 21 -8 0 -11 2 -11 10 1 8 12 12 13 19 2 6 -10 49 -16 142 -23 206 -13
184 -19 210 54 15 41 28 63 38 63 68 1 71 3 71 39 0 19 -7 77 -15 128 -14 89
-17 121 -30 292 -8 100 -43 184 -89 211 -39 23 -104 72 -132 100 -15 15 -23
38 -26 69 -3 46 -3 47 25 41 15 -3 62 -22 105 -41z m4004 -76 c32 -23 67 -56
77 -73 26 -43 33 -92 17 -105 -11 -9 -18 0 -36 44 -19 46 -34 64 -89 105 -36
27 -81 57 -98 65 -25 12 -33 23 -33 41 l0 26 52 -30 c29 -17 78 -49 110 -73z
m-2426 -418 c30 11 67 12 61 2 -3 -5 6 -9 20 -9 13 -1 31 -10 39 -20 12 -16
13 -16 8 -2 -4 13 0 16 18 14 13 -1 29 -5 35 -9 6 -4 14 -1 16 5 3 7 6 2 7
-12 1 -23 2 -23 10 -5 8 19 9 19 9 -2 1 -16 -6 -23 -26 -26 -22 -3 -20 -4 10
-6 31 -1 40 3 44 19 6 24 22 27 19 4 -4 -23 -26 -34 -73 -34 -41 0 -65 14 -41
23 7 3 -7 5 -32 5 -37 0 -40 -1 -20 -8 24 -8 24 -8 3 -9 -20 -1 -23 -6 -23
-46 0 -42 2 -45 28 -46 15 -1 30 -1 35 0 4 0 7 -17 7 -39 0 -31 4 -40 18 -41
14 0 14 -2 -3 -9 -18 -7 -17 -8 10 -13 17 -3 -16 -3 -72 0 -70 3 -103 1 -103
-6 0 -11 13 -12 133 -13 78 0 94 -6 100 -34 4 -22 1 -24 -39 -24 -39 0 -44 3
-45 23 l-2 22 -4 -22 c-6 -32 -23 -29 -24 5 -1 25 -2 23 -15 -17 -3 -10 -8
-10 -18 -2 -7 6 -15 9 -17 7 -2 -2 -16 -6 -31 -10 -22 -5 -28 -3 -29 11 -1 17
-2 17 -6 1 -6 -25 -89 -23 -96 2 -6 23 3 36 28 43 13 3 9 5 -13 6 -20 1 -31 5
-27 11 4 6 11 8 16 5 5 -4 9 31 9 84 l0 91 34 0 c19 0 36 -5 38 -12 3 -7 7 -6
11 5 6 15 -1 17 -56 17 -34 0 -57 4 -50 8 6 4 15 20 18 35 7 27 25 38 25 15 0
-7 6 -4 12 7 7 12 13 15 15 8 3 -9 12 -9 29 -2z m-966 -64 c0 -5 6 -7 14 -4 7
3 19 0 25 -6 8 -8 11 -8 11 0 0 15 91 7 102 -9 5 -9 8 -8 8 5 0 11 6 17 13 14
6 -2 12 -18 12 -35 0 -27 4 -32 25 -33 23 -2 23 -2 3 -6 -22 -4 -22 -4 -2 -24
14 -14 19 -33 19 -72 0 -60 -11 -76 -54 -79 -19 -1 -9 -4 24 -8 37 -4 -3 -7
-117 -8 -113 -1 -174 2 -178 9 -4 6 -13 8 -20 5 -19 -7 -25 16 -25 104 0 54
-4 80 -12 83 -10 3 -10 7 1 20 7 9 11 25 9 35 -5 17 1 19 68 18 41 0 74 -4 74
-9z m1801 -11 c13 11 19 13 19 5 0 -9 11 -11 40 -6 28 5 40 3 40 -5 0 -7 7
-10 15 -7 8 4 17 2 20 -3 3 -5 13 -6 21 -3 9 3 20 0 25 -8 7 -11 9 -11 9 -1 0
18 69 9 81 -10 7 -10 9 -9 9 5 0 16 2 17 15 3 8 -8 15 -21 15 -30 0 -8 4 -17
9 -20 14 -9 20 16 9 37 -5 10 -7 21 -4 25 3 3 6 0 6 -7 0 -7 6 -11 14 -8 9 4
14 -2 14 -19 0 -13 -6 -24 -12 -25 -6 0 -2 -4 9 -9 17 -7 14 -9 -13 -9 -30 -1
-32 -2 -18 -17 20 -19 22 -113 4 -136 -10 -12 -36 -17 -98 -21 -47 -2 -73 -2
-57 0 15 2 27 11 27 19 0 17 -21 19 -37 3 -8 -8 -13 -7 -18 2 -5 8 -4 10 3 5
7 -4 12 -2 12 3 0 6 10 11 23 12 l22 0 -21 9 c-25 10 -41 30 -25 30 6 0 11 -4
11 -10 0 -5 7 -10 15 -10 8 0 15 5 15 10 0 6 -6 10 -12 10 -9 0 -10 2 -2 8 6
4 13 26 15 49 5 47 -3 53 -74 53 -47 0 -77 -15 -77 -38 -1 -41 -17 -43 -28 -3
-5 23 -6 41 -1 41 5 0 9 -10 10 -22 l0 -23 11 22 c11 23 35 33 86 33 47 0 40
15 -8 16 -22 0 -40 -4 -40 -8 0 -4 -19 -7 -42 -7 -28 1 -34 3 -18 6 36 7 56
43 24 43 -10 0 -14 -6 -11 -14 4 -9 -2 -13 -19 -13 -13 0 -21 3 -19 7 3 5 -4
6 -15 3 -15 -4 -20 0 -20 14 0 26 14 40 18 18 3 -15 5 -15 23 1z m1029 -13 c1
-17 1 -17 14 0 16 21 27 22 20 2 -5 -13 -3 -13 22 0 35 18 54 19 54 3 0 -9 3
-10 8 -2 4 6 18 9 32 7 38 -5 80 -5 130 0 42 5 107 -11 84 -20 -6 -2 -10 -16
-8 -31 3 -27 1 -28 -34 -24 -37 4 -37 4 -14 -13 18 -13 22 -26 22 -74 0 -57
-11 -84 -40 -94 -8 -3 0 -6 18 -6 17 -1 32 -5 32 -10 0 -4 -12 -6 -27 -3 -26
4 -27 3 -10 -10 12 -9 18 -23 15 -39 -3 -23 -7 -24 -76 -27 -40 -2 -79 1 -85
6 -7 5 -48 8 -93 6 l-81 -2 -1 27 c0 25 3 28 35 29 38 2 57 12 36 19 -7 3 -14
17 -14 31 -2 24 -2 24 -6 5 -3 -16 -11 -23 -29 -23 -24 0 -24 2 -24 84 0 58 4
86 13 89 6 3 -1 6 -18 7 -19 1 -25 4 -15 8 8 4 15 13 16 20 1 6 2 21 3 32 1
25 21 27 21 3z m2211 -62 c1 -13 2 -13 6 2 5 19 12 21 31 9 7 -5 10 -16 6 -25
-8 -23 -25 -22 -18 1 5 16 5 16 -6 -1 -6 -9 -15 -15 -21 -12 -5 4 -9 2 -9 -3
0 -5 28 -14 63 -20 l62 -11 -60 4 c-46 3 -53 2 -31 -5 40 -12 47 -27 40 -80
-9 -76 -14 -90 -32 -91 -9 0 -1 -7 18 -15 34 -13 34 -14 5 -9 -16 2 -75 9
-130 16 -131 14 -199 26 -162 28 16 0 26 5 22 10 -3 6 -18 6 -38 0 -41 -12
-50 -11 -42 1 4 6 11 8 16 5 5 -4 10 4 10 17 1 18 2 19 6 5 3 -13 11 -17 24
-14 10 3 22 1 25 -4 3 -5 16 -9 30 -9 13 0 24 -4 24 -10 0 -5 7 -10 15 -10 10
0 15 10 15 33 0 39 9 54 35 58 15 3 21 14 23 39 2 19 9 38 15 42 7 4 -8 8 -32
8 -60 0 -47 9 16 11 40 2 48 5 39 15 -6 6 -12 8 -14 3 -5 -14 -32 -11 -32 4 0
8 -4 7 -10 -3 -5 -8 -10 -12 -10 -8 0 3 -3 13 -6 21 -4 12 6 15 50 15 45 0 56
-4 57 -17z m-6041 -10 c0 -4 16 -6 37 -4 23 2 39 -1 44 -9 7 -10 9 -10 9 -1 0
16 72 14 82 -1 5 -7 8 -4 8 6 0 11 5 15 15 12 8 -4 15 -18 14 -33 0 -22 -2
-23 -8 -7 -7 18 -8 18 -14 2 -4 -9 -11 -14 -17 -11 -5 3 -10 1 -10 -4 0 -6 21
-11 48 -12 36 -1 41 -3 22 -8 -25 -7 -25 -7 -2 -13 17 -5 22 -13 21 -35 -2
-24 -2 -25 -6 -5 -5 26 -38 42 -90 42 l-35 0 7 -67 c9 -88 17 -101 63 -106 24
-2 16 -4 -26 -5 -60 -2 -63 -1 -46 16 17 16 17 17 -1 21 -11 2 -21 -2 -23 -8
-8 -23 -19 -9 -19 24 0 19 4 35 9 35 4 0 8 -4 8 -10 0 -5 7 -10 15 -10 25 0
17 18 -12 29 -26 10 -26 11 -3 7 24 -5 25 -4 24 51 l0 57 -35 -1 c-18 0 -37 5
-41 11 -5 7 -8 4 -8 -6 0 -14 9 -18 38 -20 l37 -1 -36 -4 c-29 -3 -36 -8 -33
-21 8 -32 9 -160 2 -155 -5 2 -8 38 -8 79 0 68 -2 75 -22 84 -17 6 -19 9 -6 9
25 1 11 31 -16 32 -11 0 -15 3 -8 6 6 2 12 11 12 19 0 9 -4 12 -10 9 -5 -3
-10 -1 -10 4 0 6 7 11 15 11 8 0 15 -4 15 -9z m4998 -64 c42 1 52 -2 53 -16 1
-14 2 -14 6 2 5 19 12 21 32 8 10 -7 11 -13 2 -27 -8 -14 -11 -15 -11 -4 0 10
-3 11 -8 4 -4 -6 -14 -14 -22 -17 -8 -3 3 -6 26 -6 49 -1 55 4 44 35 -7 18 -6
22 5 17 15 -5 17 -9 19 -35 1 -7 6 -16 11 -20 6 -4 -26 -8 -70 -9 -44 -1 -64
-4 -45 -6 58 -6 80 -13 80 -25 0 -9 -3 -9 -12 0 -7 7 -34 12 -60 12 l-48 0 0
-56 0 -56 -30 4 c-25 4 -30 1 -33 -21 -3 -22 -4 -22 -6 6 0 21 5 35 17 42 15
9 15 10 -4 11 -27 0 -41 -16 -47 -55 -3 -16 -3 8 0 53 6 83 6 84 -18 80 -16
-2 -25 -13 -32 -38 -5 -19 -12 -29 -14 -22 -3 7 0 26 7 43 10 24 18 29 46 29
l34 0 -6 -42 -6 -43 40 -1 40 -2 4 43 3 44 -80 5 c-153 11 -160 13 -92 14 69
2 72 4 56 37 -9 19 -9 18 -5 -2 3 -16 -1 -23 -11 -23 -10 0 -13 6 -9 16 3 9 6
20 6 26 0 6 15 7 43 2 23 -4 66 -8 95 -7z m-4224 -72 c6 -11 25 -43 43 -72 18
-28 35 -63 39 -77 6 -26 25 -32 89 -29 11 1 77 3 147 4 l128 2 40 68 c56 92
70 103 121 96 22 -3 43 -8 46 -11 9 -9 -16 -58 -26 -52 -5 3 -11 -8 -15 -24
-3 -18 -12 -30 -21 -30 -8 0 -15 -4 -15 -10 0 -15 -42 -60 -57 -60 -7 0 -13
-9 -13 -20 0 -11 -9 -29 -20 -40 -11 -11 -20 -26 -20 -32 0 -10 -2 -10 -8 -1
-5 8 -14 2 -27 -18 -16 -25 -25 -29 -48 -25 -21 4 -33 -1 -54 -24 -14 -16 -34
-32 -44 -35 -11 -4 -27 -30 -40 -66 -12 -33 -23 -58 -25 -56 -2 2 -10 26 -18
53 -13 43 -13 47 -1 30 8 -11 15 -31 16 -45 0 -24 2 -23 14 9 19 49 19 47 -25
55 -31 5 -44 14 -56 37 -14 27 -19 29 -54 25 -38 -4 -39 -4 -51 39 -8 24 -17
44 -22 44 -5 0 -7 7 -3 15 3 9 0 15 -9 15 -8 0 -15 9 -15 21 0 11 -4 17 -10
14 -5 -3 -10 1 -10 10 0 9 -12 32 -26 51 -15 19 -24 34 -20 34 3 0 -3 24 -14
53 -29 75 -28 79 26 75 35 -2 50 -8 58 -23z m417 -69 c2 -19 2 -18 6 2 6 30
25 23 30 -10 3 -26 2 -26 -63 -30 -36 -1 -74 0 -84 4 -11 4 -22 4 -24 -1 -8
-12 -89 -2 -98 12 -6 9 -10 9 -18 -3 -8 -13 -10 -12 -11 5 0 11 -3 14 -6 8 -9
-23 -33 -14 -33 11 l0 25 150 -1 c144 -2 150 -2 151 -22z m4694 -31 c57 -4 84
-11 93 -22 7 -11 12 -12 12 -5 0 9 12 11 40 8 53 -6 58 -11 53 -41 -4 -19 -10
-24 -27 -20 -11 2 -42 7 -68 10 -35 5 -48 11 -49 23 -1 15 -2 15 -6 -1 -2 -9
-8 -15 -13 -12 -4 3 -6 14 -3 25 3 12 0 20 -6 20 -7 0 -11 -8 -9 -17 2 -10 -4
-19 -14 -21 -10 -2 -18 2 -18 8 0 6 5 8 12 4 7 -4 8 -3 4 5 -5 8 -12 9 -20 2
-7 -6 -17 -6 -26 -1 -9 6 -17 5 -22 -3 -6 -9 -11 -8 -18 3 -9 13 -11 13 -20 0
-7 -11 -10 -7 -10 18 0 27 3 32 18 28 9 -2 53 -8 97 -11z m-1244 -56 c21 -23
41 -50 44 -59 9 -27 33 -32 230 -43 102 -5 251 -23 265 -32 5 -3 23 21 39 54
17 32 43 68 58 79 30 21 119 37 127 23 3 -5 -10 -43 -29 -85 -19 -43 -35 -84
-35 -92 0 -7 -5 -14 -11 -14 -6 0 -9 -7 -5 -15 4 -10 -1 -15 -15 -15 -11 0
-17 -4 -14 -10 3 -5 2 -10 -3 -10 -5 0 -12 -9 -15 -20 -4 -17 -2 -18 14 -9 29
15 23 -4 -11 -35 l-31 -27 6 24 c5 17 2 26 -9 30 -15 6 -21 -7 -17 -40 2 -13
-16 -12 -46 5 -32 18 -61 15 -73 -7 -11 -22 -99 -51 -153 -51 -34 0 -62 20
-106 75 -13 16 -24 16 -76 1 -14 -5 -32 5 -62 32 -24 22 -43 43 -43 47 0 4
-11 18 -24 30 -14 13 -23 25 -20 27 2 3 -12 19 -31 37 -27 24 -34 37 -29 53 4
13 2 18 -4 14 -12 -7 -45 52 -36 65 3 5 21 9 41 9 29 0 43 -8 74 -41z m-2296
-18 c3 -5 -6 -22 -20 -37 -14 -15 -25 -22 -25 -15 0 6 -7 11 -15 11 -15 0 -36
-38 -40 -72 -2 -25 -12 -32 -48 -35 -120 -10 -264 0 -312 22 -22 10 -50 22
-62 28 -12 5 -33 7 -47 3 -24 -6 -26 -4 -26 23 0 24 3 28 20 24 16 -4 19 -2
14 11 -6 14 -1 16 37 10 24 -3 57 -10 73 -15 38 -12 103 -11 146 1 19 6 60 13
90 16 30 3 77 9 103 15 51 10 80 3 56 -12 -11 -7 -10 -9 4 -9 11 0 21 9 24 20
6 21 18 26 28 11z m-871 -69 c28 -26 44 -64 52 -120 7 -58 21 -65 54 -30 20
21 24 32 21 54 -1 6 8 19 19 29 19 17 20 17 30 -10 7 -18 15 -25 25 -21 19 7
69 -46 101 -106 29 -58 30 -62 3 -47 -20 10 -21 9 -15 -16 12 -47 17 -179 7
-210 -4 -16 -13 -29 -20 -27 -6 1 -10 -3 -9 -10 3 -13 -39 -38 -65 -38 -10 0
-30 -11 -45 -25 -27 -25 -66 -33 -76 -16 -9 15 -14 191 -7 246 7 56 4 88 -9
80 -8 -5 3 45 13 62 3 4 -5 8 -16 8 -21 0 -22 -5 -25 -95 -2 -71 -6 -96 -17
-103 -8 -4 -15 -18 -15 -31 0 -19 -5 -23 -26 -23 -15 0 -30 -7 -35 -14 -12
-19 -11 -37 1 -19 8 11 9 5 6 -23 -2 -29 1 -40 15 -47 14 -8 19 -6 24 11 4 11
9 18 12 16 3 -3 2 -15 -2 -26 -5 -16 -12 -19 -40 -14 -27 4 -35 2 -35 -10 0
-8 7 -17 15 -21 15 -5 22 -28 8 -24 -9 3 -13 -5 -13 -26 0 -18 29 -14 40 4 7
12 10 11 16 -4 15 -39 4 -196 -15 -219 -6 -8 -8 -23 -4 -32 5 -15 3 -17 -11
-12 -14 5 -17 3 -12 -8 3 -8 1 -15 -4 -15 -5 0 -16 -7 -25 -16 -14 -15 -17
-14 -36 7 -13 15 -16 26 -9 33 15 15 12 30 -3 17 -16 -13 -27 -5 -27 20 0 12
-6 16 -18 12 -14 -3 -18 3 -20 33 -2 21 -6 42 -9 47 -4 6 0 8 11 4 14 -6 15
-3 5 14 -15 29 -2 124 16 109 9 -8 12 -5 12 12 0 25 21 82 22 60 1 -7 6 -10
11 -7 18 11 11 21 -17 23 -32 2 -55 28 -52 57 3 30 -12 105 -22 111 -5 3 -9
19 -9 35 0 18 -4 28 -10 24 -5 -3 -10 -2 -10 4 0 5 -8 17 -17 27 -22 22 -26
100 -7 136 8 15 13 30 12 32 -6 9 45 55 71 66 15 6 47 33 72 59 39 44 46 48
69 39 14 -5 33 -17 44 -26z m-726 -66 c30 -28 68 -94 59 -103 -2 -2 -17 7 -33
19 l-29 22 26 -30 c35 -39 43 -74 21 -90 -12 -9 -13 -13 -4 -14 7 0 10 -5 7
-10 -4 -6 -11 -8 -16 -5 -5 4 -9 -1 -9 -10 0 -9 -7 -23 -15 -31 -10 -10 -15
-11 -15 -4 0 8 -8 7 -25 -4 -27 -18 -49 -21 -40 -6 3 5 0 7 -8 4 -8 -3 -20
-16 -27 -29 -7 -13 -23 -26 -36 -29 -13 -4 -24 -10 -24 -15 0 -16 -44 -78 -64
-91 -15 -9 -20 -9 -26 1 -5 7 -7 -2 -7 -22 2 -31 0 -34 -28 -34 -39 0 -57 15
-38 33 7 7 11 17 8 22 -2 4 10 10 28 14 24 5 29 9 17 16 -8 5 -11 12 -7 16 4
4 -3 12 -15 18 -28 14 -41 63 -27 99 6 15 15 27 19 27 4 0 12 12 19 26 13 30
62 94 110 147 19 20 29 37 23 37 -18 0 24 43 44 46 9 2 21 7 27 13 16 16 47 4
85 -33z m3599 -31 c11 -8 31 -34 43 -57 12 -24 33 -55 48 -70 34 -37 18 -36
-24 2 -68 60 -142 49 -223 -32 -28 -28 -51 -48 -51 -45 0 19 45 116 63 136 29
31 97 81 111 81 6 0 21 -7 33 -15z m235 -44 c18 -16 52 -46 76 -66 23 -21 42
-43 42 -50 0 -6 7 -26 16 -44 25 -50 15 -132 -26 -216 -19 -38 -40 -74 -48
-78 -9 -6 -10 -12 -3 -21 7 -8 4 -15 -10 -24 -16 -10 -20 -10 -25 3 -3 8 -10
12 -15 9 -5 -3 -6 3 -2 13 3 10 3 15 -1 11 -4 -3 -30 17 -57 45 l-49 52 6 102
c3 66 1 103 -5 108 -20 11 -11 37 22 68 22 21 25 27 10 18 -28 -15 -30 -1 -3
22 11 9 20 27 20 40 0 21 7 37 16 37 2 0 18 -13 36 -29z m858 -76 c17 -18 64
-108 119 -227 34 -75 26 -106 -27 -110 -18 -1 -32 -6 -32 -11 0 -5 -8 -7 -19
-4 -15 3 -18 0 -14 -17 4 -21 4 -21 -9 1 -10 16 -17 20 -28 13 -24 -15 -38
-12 -46 13 -3 12 -31 44 -60 70 -30 27 -54 55 -54 63 0 9 -5 12 -10 9 -16 -10
-32 46 -25 85 4 19 7 43 7 52 -1 10 19 39 42 65 24 26 49 59 56 72 l12 24 34
-39 c19 -21 43 -48 54 -59z m-1052 -59 c15 -8 38 -26 52 -41 23 -24 25 -34 24
-106 -1 -45 -6 -85 -13 -92 -8 -8 -11 -6 -11 8 -1 17 -2 17 -10 5 -6 -11 -24
-15 -55 -15 -43 0 -47 -2 -52 -27 -3 -15 -9 -25 -14 -22 -5 3 -9 -3 -9 -14 0
-24 -8 -32 -26 -25 -8 3 -14 18 -14 35 0 16 -4 27 -8 24 -4 -2 -9 12 -10 32
-2 20 -9 44 -17 53 -8 8 -15 23 -15 31 0 9 -7 21 -15 28 -33 27 -9 85 49 121
37 22 106 25 144 5z m-5176 -211 c15 -19 25 -24 44 -19 14 4 24 2 24 -5 0 -6
7 -8 15 -5 9 4 15 0 15 -10 0 -19 16 -21 23 -3 3 6 6 -1 6 -17 1 -29 1 -29 23
-10 18 16 21 17 15 2 -4 -12 -2 -15 9 -11 8 3 14 -1 15 -8 1 -21 0 -144 -1
-144 -1 0 -2 -16 -3 -35 -1 -19 -7 -41 -14 -47 -14 -16 -119 -17 -128 -3 -4 7
-12 7 -18 2 -7 -4 -29 -10 -51 -11 l-39 -3 6 124 c5 114 22 228 34 228 3 0 14
-11 25 -25z m1264 -120 c-12 -9 -15 -15 -7 -15 8 0 11 -6 7 -16 -3 -8 -2 -12
3 -9 17 10 22 -13 6 -28 -8 -9 -15 -19 -15 -24 1 -4 9 2 20 15 15 19 17 28 9
50 -10 26 -10 26 10 7 12 -10 21 -24 21 -31 0 -8 6 -11 14 -8 11 4 15 -1 14
-18 -1 -12 -5 -28 -9 -33 -9 -12 -7 -34 5 -54 5 -8 4 -16 -2 -20 -6 -3 -14
-19 -17 -34 -4 -15 -11 -30 -16 -33 -11 -6 -6 56 6 75 6 11 4 13 -8 8 -10 -4
-17 -2 -17 5 0 6 -8 5 -22 -4 -14 -9 -22 -25 -23 -43 0 -16 -6 -30 -12 -32 -7
-3 -13 0 -13 6 0 6 5 11 10 11 6 0 10 5 10 10 0 6 -11 10 -25 10 -14 0 -25 5
-25 10 0 6 4 10 8 10 5 0 8 13 8 29 0 21 -4 27 -14 24 -11 -5 -11 -7 -1 -14 8
-4 11 -10 8 -13 -13 -14 -31 14 -25 39 4 15 10 25 13 21 3 -3 12 -1 20 5 10 9
13 8 13 -5 0 -9 3 -15 8 -15 20 3 21 -4 7 -32 -9 -17 -15 -32 -13 -34 7 -8 46
33 52 56 6 18 5 20 -3 9 -9 -12 -11 -12 -17 3 -3 9 -4 28 0 40 3 13 0 32 -8
42 -18 25 -10 45 18 45 21 -1 21 -1 2 -15z m5344 -59 c0 -8 5 -16 10 -18 12
-4 31 -153 32 -247 0 -49 -4 -66 -16 -73 -9 -5 -14 -13 -11 -18 3 -5 1 -11 -5
-15 -5 -3 -10 -2 -10 4 0 9 -12 9 -40 -2 -28 -10 -70 -14 -75 -7 -3 4 2 10 10
14 8 3 15 10 15 16 0 6 -4 8 -10 5 -5 -3 -10 0 -10 7 0 10 -3 9 -11 -2 -9 -12
-10 -11 -6 7 3 12 -1 24 -8 27 -13 5 -14 53 -2 74 4 6 0 17 -9 26 -8 9 -13 20
-10 25 3 5 0 11 -7 14 -8 3 -14 26 -15 62 -1 54 0 56 17 41 12 -11 20 -13 28
-5 7 7 15 5 27 -6 9 -9 16 -12 16 -6 0 12 28 41 41 41 5 0 9 -9 9 -20 0 -21
16 -29 17 -7 0 6 4 21 8 32 5 14 4 16 -3 7 -7 -11 -10 -9 -15 7 -2 11 -2 22 1
25 11 11 32 6 32 -8z m-1147 -73 c-8 -3 -5 -16 9 -39 23 -39 38 -164 20 -164
-6 0 -9 -7 -6 -15 4 -11 2 -13 -9 -9 -13 4 -14 -2 -10 -35 4 -27 2 -41 -6 -41
-6 0 -12 8 -12 18 -1 9 -2 22 -4 27 -1 6 -3 16 -3 23 -2 10 -5 10 -16 0 -8 -7
-13 -15 -11 -18 2 -3 -3 -14 -11 -25 -13 -17 -16 -18 -24 -5 -5 8 -5 17 -1 20
9 5 31 45 31 54 0 3 -7 6 -16 6 -21 0 -66 48 -59 61 4 5 1 9 -4 9 -6 0 -11 -4
-11 -10 0 -5 -5 -10 -11 -10 -7 0 -9 10 -5 25 5 19 3 23 -9 19 -20 -8 -20 20
1 37 13 11 15 10 12 -5 -2 -11 7 -25 22 -34 24 -16 24 -16 11 1 -10 13 -11 17
-1 17 9 0 7 7 -5 20 -10 11 -15 20 -12 20 4 0 16 -9 27 -20 11 -11 17 -20 12
-20 -4 0 -7 -14 -7 -30 -1 -22 3 -29 13 -25 9 3 12 -1 7 -14 -7 -24 9 -35 33
-22 13 7 22 7 30 -1 9 -9 12 -9 12 0 0 7 8 12 18 13 13 0 14 2 2 6 -27 11 -50
47 -45 71 3 12 1 22 -5 22 -5 0 -10 13 -10 29 0 21 6 30 21 34 12 3 18 10 14
16 -4 7 0 8 11 4 10 -4 13 -8 7 -10z m-628 -437 c19 -8 51 -27 70 -41 37 -29
95 -133 95 -172 0 -20 5 -24 28 -23 58 4 68 -1 113 -58 64 -80 70 -93 22 -50
-57 51 -82 65 -126 71 -35 6 -38 4 -43 -23 -4 -16 -12 -31 -20 -34 -8 -3 -13
0 -11 6 1 6 -5 13 -13 15 -10 3 -11 2 -3 -4 8 -6 9 -14 3 -23 -6 -8 -10 -10
-10 -5 0 6 -4 4 -9 -3 -10 -16 -111 -26 -111 -11 0 6 -5 7 -12 2 -19 -11 -41
-13 -58 -6 -8 3 -21 7 -28 9 -27 5 -100 77 -74 73 18 -3 32 2 32 12 0 7 -10 9
-25 5 -21 -5 -25 -3 -26 16 0 20 -1 20 -8 5 -6 -15 -9 -13 -24 17 -24 51 -33
126 -15 137 9 6 9 9 1 9 -26 0 1 32 51 60 59 34 142 40 201 16z m-49 -634 c88
-45 139 -107 164 -195 16 -59 8 -155 -15 -195 -17 -27 -75 -71 -75 -56 0 3 -7
1 -15 -6 -12 -10 -15 -10 -15 4 0 21 -38 21 -62 -1 -11 -9 -18 -11 -18 -5 0
18 -28 14 -39 -6 -10 -16 -10 -16 -11 1 0 12 -8 17 -27 17 -19 0 -24 3 -15 8
8 6 2 9 -18 9 -21 0 -26 -3 -18 -9 8 -5 -3 -7 -27 -4 -75 9 -133 30 -148 53
-13 20 -27 15 -37 -13 -21 -55 -60 23 -60 121 0 140 70 244 199 292 54 20 185
12 237 -15z"/>
<path d="M3985 2385 c-4 -41 -5 -89 -1 -107 8 -41 43 -101 55 -93 5 3 13 0 17
-6 4 -8 3 -9 -4 -5 -21 13 -12 -10 13 -34 l25 -23 41 29 c83 57 102 99 111
249 l3 40 -100 12 c-168 19 -152 25 -160 -62z m178 48 c66 -6 67 -6 67 -35 0
-17 -4 -27 -10 -23 -6 3 -10 -4 -10 -17 0 -13 -5 -30 -10 -38 -9 -13 -11 -13
-20 0 -13 20 -13 8 0 -25 10 -25 9 -27 -12 -22 -13 3 -51 9 -86 13 -50 5 -60
9 -51 20 8 10 5 15 -13 19 -21 5 -23 10 -20 67 l4 60 46 -6 c26 -3 77 -9 115
-13z"/>
<path d="M4180 1991 c0 -18 -3 -19 -25 -9 -17 8 -32 8 -47 1 -16 -7 -32 -6
-52 2 -37 16 -61 9 -86 -23 -25 -32 -25 -53 1 -86 18 -22 28 -26 67 -25 26 0
72 -4 102 -10 30 -7 97 -14 148 -16 51 -2 96 -7 101 -9 8 -5 297 -17 471 -20
l85 -1 3 32 c3 32 27 62 40 49 3 -4 -1 -21 -11 -38 -19 -33 -15 -48 14 -48 10
0 35 -9 55 -19 52 -28 88 -16 92 31 2 22 -3 39 -12 48 -22 18 -20 28 7 32 14
2 23 11 25 25 3 22 2 23 -130 23 -73 0 -186 3 -251 6 -95 5 -122 3 -140 -9
-21 -14 -24 -13 -34 1 -7 12 -27 17 -74 18 -77 1 -109 10 -109 30 0 8 -10 14
-25 14 -18 0 -25 -5 -25 -20 0 -17 -3 -19 -19 -10 -33 17 -71 11 -95 -15 l-23
-24 1 42 c1 39 -1 42 -26 45 -23 3 -28 -1 -28 -17z"/>
<path d="M3957 1804 c-4 -4 -7 -20 -7 -36 0 -25 5 -29 45 -39 54 -14 53 -5 17
-194 l-27 -140 -50 -5 c-49 -5 -50 -5 -53 -42 -3 -36 -3 -37 40 -42 176 -20
281 -27 290 -18 5 5 8 22 6 38 -2 22 -10 30 -38 37 -19 5 -38 12 -42 15 -9 9
40 292 54 309 6 7 23 13 38 13 47 0 60 10 60 44 l0 32 -137 12 c-76 7 -149 15
-163 18 -14 3 -29 2 -33 -2z m191 -26 c124 -12 133 -14 130 -33 -2 -16 -12
-21 -53 -25 l-50 -5 -27 -135 c-15 -74 -27 -153 -25 -175 2 -38 4 -40 45 -49
35 -8 42 -14 42 -34 0 -23 -3 -24 -40 -18 -22 3 -75 9 -118 12 -151 10 -164
13 -160 37 3 19 10 22 47 23 24 1 47 7 51 15 13 20 62 292 58 320 -2 19 -12
26 -45 33 -36 8 -43 14 -43 34 0 21 3 24 28 18 15 -3 87 -11 160 -18z"/>
<path d="M4455 1754 c-52 -27 -83 -65 -104 -125 l-20 -59 21 -14 c26 -18 54
-6 63 26 10 34 56 78 79 78 40 0 51 -16 50 -68 -4 -117 -102 -212 -218 -212
-54 0 -76 -19 -76 -64 0 -29 4 -34 31 -40 17 -3 66 -6 107 -6 42 0 139 -5 216
-11 l140 -12 23 27 c24 28 29 51 15 60 -5 3 -49 10 -98 16 -49 6 -102 13 -117
16 l-28 6 59 54 c157 142 123 344 -58 344 -30 0 -68 -7 -85 -16z m165 -11 c44
-26 64 -70 58 -134 -6 -70 -48 -135 -129 -194 -43 -31 -54 -45 -43 -49 9 -3
70 -13 137 -21 67 -9 126 -17 131 -18 5 -2 -2 -15 -15 -30 l-24 -28 -135 11
c-74 5 -182 10 -239 10 l-103 0 6 32 c3 17 7 33 9 34 1 2 30 7 64 13 120 19
190 80 214 185 15 67 3 107 -34 120 -46 17 -79 -3 -107 -61 -27 -56 -28 -57
-49 -44 -32 20 27 134 88 170 45 26 131 28 171 4z"/>
<path d="M4823 1713 c-20 -49 -53 -199 -53 -241 1 -50 22 -74 107 -116 83 -41
108 -71 99 -117 -16 -81 -97 -133 -205 -132 -37 0 -72 -4 -78 -9 -10 -8 -13
-4 -13 15 0 14 -5 29 -10 32 -7 4 -6 13 1 26 12 23 12 22 -18 38 -32 16 -68
14 -93 -7 -23 -18 -24 -18 -42 0 -13 13 -31 18 -61 17 -23 -1 -80 2 -127 6
-84 7 -85 7 -112 -20 l-28 -28 0 26 c0 41 -63 62 -111 37 -13 -7 -19 -7 -19 0
0 5 -11 10 -25 10 -18 0 -29 -9 -44 -37 -17 -33 -20 -36 -26 -18 -20 59 -25
65 -55 65 -36 0 -35 2 -10 -80 25 -82 25 -90 -2 -91 -18 -1 -19 -2 -5 -6 10
-3 24 0 32 7 11 9 9 23 -10 85 l-23 75 23 0 c19 0 24 -7 30 -38 11 -66 20 -69
50 -18 15 25 34 46 42 46 13 0 13 -4 -2 -26 -9 -15 -33 -53 -52 -85 -18 -33
-40 -59 -48 -59 -20 0 -19 -16 2 -24 18 -7 23 -1 53 56 22 41 40 57 40 35 0
-8 12 -26 26 -41 30 -29 89 -36 124 -14 15 10 22 9 39 -6 15 -14 43 -19 133
-22 62 -3 151 -7 197 -9 46 -3 91 -1 100 4 11 6 23 4 35 -4 43 -32 186 -25
261 12 87 44 155 152 155 249 0 81 -29 117 -148 179 -87 46 -98 59 -83 98 l11
27 109 0 c126 0 132 4 134 86 l2 44 -144 3 -144 2 -14 -32z m294 13 c2 -1 -3
-22 -10 -47 l-13 -44 -117 -3 -116 -3 -7 -33 c-11 -59 -4 -68 96 -121 111 -60
135 -90 133 -170 0 -27 -7 -66 -16 -86 -20 -49 -82 -116 -128 -139 -73 -38
-249 -48 -249 -14 0 21 20 28 90 29 106 3 191 61 206 142 11 56 -10 82 -106
133 -105 56 -111 68 -87 183 9 45 23 105 31 132 l15 51 138 -4 c76 -2 139 -5
140 -6z m-774 -581 c-1 -62 -4 -70 -20 -67 -10 2 -33 3 -52 2 -68 -2 -95 67
-46 116 21 21 33 24 73 22 l47 -3 -2 -70z m67 56 c0 -6 12 -6 31 1 67 23 111
-41 53 -79 -25 -16 -25 -17 -8 -30 25 -18 54 -16 54 3 0 14 -3 14 -15 4 -18
-15 -20 1 -3 18 14 14 32 16 23 3 -7 -13 34 -41 62 -41 48 0 31 34 -24 49 -64
17 -20 91 47 76 41 -9 38 -25 -5 -22 -40 2 -46 -15 -9 -25 55 -14 68 -44 34
-78 -16 -16 -31 -19 -103 -17 -59 2 -91 8 -110 20 -32 21 -37 21 -37 2 0 -8
-7 -15 -15 -15 -12 0 -15 13 -13 70 3 59 6 70 21 70 9 0 17 -4 17 -9z"/>
<path d="M3527 909 c-15 -32 -13 -59 4 -59 5 0 15 11 21 25 6 14 15 25 20 25
11 0 10 -7 -3 -32 -6 -11 -8 -22 -5 -25 3 -4 11 8 17 25 6 18 15 32 20 32 6 0
5 -9 -1 -21 -19 -35 -6 -49 49 -49 27 0 53 -5 57 -11 3 -6 17 -8 29 -5 13 3
26 2 29 -3 3 -5 23 -8 43 -8 33 2 38 5 36 25 -2 14 3 22 13 22 8 0 12 5 9 10
-10 16 -35 12 -42 -7 -8 -21 -23 -33 -42 -33 -8 0 -4 10 13 25 31 29 34 55 5
55 -13 0 -25 -11 -35 -35 -8 -19 -21 -35 -30 -35 -11 0 -8 9 12 35 18 24 24
39 17 46 -16 16 -40 0 -58 -37 -9 -19 -20 -34 -25 -34 -12 0 -13 17 -1 24 5 3
11 16 14 28 5 18 -2 14 -28 -17 -19 -22 -34 -35 -35 -29 0 7 7 14 15 18 8 3
15 15 15 26 0 22 -15 27 -26 8 -4 -7 -3 -8 4 -4 7 4 12 1 12 -9 0 -11 -5 -15
-14 -12 -8 3 -17 1 -20 -6 -3 -7 -3 0 0 16 5 21 2 27 -12 28 -39 3 -45 4 -53
17 -6 10 -12 4 -24 -19z"/>
<path d="M2403 2715 c0 -67 2 -75 18 -75 16 0 19 8 19 58 0 40 3 53 10 42 5
-8 10 -27 10 -42 0 -63 26 -78 35 -20 12 72 24 81 24 20 1 -45 4 -58 16 -58
12 0 15 15 15 75 0 73 -1 75 -25 75 -20 0 -25 -6 -31 -35 -7 -37 -24 -48 -24
-16 0 36 -12 51 -39 51 -27 0 -27 0 -28 -75z"/>
<path d="M2632 2725 c1 -36 5 -70 9 -76 3 -6 28 -9 55 -7 l49 3 3 56 c4 71
-11 89 -74 89 l-45 0 3 -65z"/>
<path d="M4540 2685 l0 -75 54 0 c62 0 66 5 66 80 0 57 -15 70 -79 70 l-41 0
0 -75z"/>
<path d="M7509 2694 c0 -22 -1 -57 -2 -79 l-2 -40 52 -3 c57 -3 56 -4 68 79 7
55 -1 64 -67 74 l-48 7 -1 -38z"/>
<path d="M1086 5275 c4 -8 1 -15 -5 -15 -6 0 -11 -11 -11 -24 0 -14 -4 -28
-10 -31 -6 -4 -10 8 -10 29 0 20 -5 36 -11 36 -6 0 -9 -9 -6 -20 3 -10 2 -19
-2 -18 -21 2 -30 -4 -24 -19 5 -15 3 -14 -10 2 -8 11 -13 23 -11 27 3 5 0 8
-6 8 -8 0 -9 -11 -5 -32 l6 -33 -20 25 -19 24 4 -36 c4 -29 1 -39 -18 -52 -22
-16 -23 -21 -20 -134 2 -67 8 -121 14 -127 8 -7 9 -6 4 2 -4 7 10 29 34 52 49
47 108 60 121 26 6 -17 8 -17 8 -2 1 14 11 17 66 17 36 0 68 1 73 3 13 4 14
-45 1 -69 -7 -13 -19 -24 -26 -24 -8 0 -11 -5 -7 -12 5 -8 2 -9 -10 -5 -11 4
-15 3 -11 -4 4 -5 -13 -29 -37 -53 -42 -40 -45 -42 -73 -30 -17 7 -40 13 -53
14 -13 0 -20 4 -17 10 9 15 -7 12 -29 -5 -11 -8 -27 -15 -36 -15 -8 0 -32 -11
-52 -25 -29 -20 -40 -36 -53 -82 -9 -32 -14 -73 -11 -91 4 -27 2 -33 -9 -28
-10 4 -15 -1 -15 -16 0 -18 -2 -19 -17 -7 -15 11 -16 11 -5 -1 6 -8 13 -25 13
-39 2 -24 2 -24 6 -3 5 25 23 30 23 6 0 -8 5 -12 11 -9 6 4 9 19 8 33 -2 15
-1 32 3 37 3 6 6 33 6 61 0 57 23 104 52 104 9 0 38 -20 64 -45 25 -25 46 -40
46 -34 0 6 7 9 15 5 8 -3 15 -2 15 3 0 5 16 16 36 26 35 16 37 16 55 -2 15
-14 18 -27 13 -51 -5 -22 -11 -31 -20 -28 -8 3 -14 -1 -14 -9 0 -8 5 -15 10
-15 6 0 10 -6 10 -14 0 -8 7 -16 15 -20 9 -3 15 -18 15 -34 0 -16 9 -39 19
-51 11 -13 17 -29 14 -37 -4 -12 30 -14 221 -14 l226 0 0 30 0 30 -160 0
c-110 0 -160 3 -160 11 0 8 47 10 158 8 l157 -4 -4 240 c-2 132 -4 241 -5 242
0 0 -71 3 -156 5 -118 4 -162 2 -182 -9 -26 -12 -28 -12 -28 6 0 11 5 23 12
27 7 4 8 3 4 -4 -5 -8 0 -12 12 -12 11 0 23 7 26 16 4 11 2 15 -8 11 -10 -4
-14 3 -13 29 1 23 6 34 16 35 13 0 13 2 2 6 -8 3 -21 -3 -29 -13 -13 -18 -14
-17 -10 8 5 28 -9 33 -39 15 -7 -5 -13 -4 -13 1 0 6 -7 13 -16 16 -12 4 -15 2
-10 -9 3 -9 0 -15 -10 -15 -8 0 -12 4 -9 10 4 6 -1 7 -11 3 -14 -5 -16 -2 -10
20 3 14 2 29 -4 32 -5 3 -7 0 -4 -8 3 -8 -2 -14 -11 -14 -10 0 -14 9 -13 28 1
15 6 25 11 22 5 -3 7 0 5 8 -3 8 2 20 11 27 9 8 10 10 3 7 -10 -5 -13 -1 -11
16 4 28 -8 52 -22 44 -5 -4 -9 -1 -9 4 0 6 -4 11 -10 11 -5 0 -7 -7 -4 -15z"/>
</g>
</svg>
